<?xml version="1.0" encoding="UTF-8" standalone="no"?>
<!DOCTYPE svg PUBLIC "-//W3C//DTD SVG 1.1//EN"
 "http://www.w3.org/Graphics/SVG/1.1/DTD/svg11.dtd">
<!-- Generated by graphviz version 14.1.5 (20260411.2331)
 -->
<!-- Title: NumericalAnalysisKG Pages: 1 -->
<svg width="10918pt" height="2255pt"
 viewBox="0.00 0.00 10918.00 2255.00" xmlns="http://www.w3.org/2000/svg" xmlns:xlink="http://www.w3.org/1999/xlink">
<g id="graph0" class="graph" transform="scale(4.16667 4.16667) rotate(0) translate(4 537.25)">
<title>NumericalAnalysisKG</title>
<polygon fill="white" stroke="none" points="-4,4 -4,-537.25 2616.35,-537.25 2616.35,4 -4,4"/>
<!-- module_approximation -->
<g id="node1" class="node">
<title>module_approximation</title>
<path fill="#f4a261" stroke="#d88c3f" d="M1643.47,-533.25C1643.47,-533.25 1465.88,-533.25 1465.88,-533.25 1459.88,-533.25 1453.88,-527.25 1453.88,-521.25 1453.88,-521.25 1453.88,-509.25 1453.88,-509.25 1453.88,-503.25 1459.88,-497.25 1465.88,-497.25 1465.88,-497.25 1643.47,-497.25 1643.47,-497.25 1649.47,-497.25 1655.47,-503.25 1655.47,-509.25 1655.47,-509.25 1655.47,-521.25 1655.47,-521.25 1655.47,-527.25 1649.47,-533.25 1643.47,-533.25"/>
<text xml:space="preserve" text-anchor="middle" x="1554.67" y="-511.75" font-family="Helvetica,sans-Serif" font-size="10.00">Polynomial Approximation &amp; Optimization</text>
</g>
<!-- concept_gradient_descent -->
<g id="node10" class="node">
<title>concept_gradient_descent</title>
<path fill="#e9c46a" stroke="#c9a945" d="M1503.72,-271.5C1503.72,-271.5 1429.62,-271.5 1429.62,-271.5 1423.62,-271.5 1417.62,-265.5 1417.62,-259.5 1417.62,-259.5 1417.62,-247.5 1417.62,-247.5 1417.62,-241.5 1423.62,-235.5 1429.62,-235.5 1429.62,-235.5 1503.72,-235.5 1503.72,-235.5 1509.72,-235.5 1515.72,-241.5 1515.72,-247.5 1515.72,-247.5 1515.72,-259.5 1515.72,-259.5 1515.72,-265.5 1509.72,-271.5 1503.72,-271.5"/>
<text xml:space="preserve" text-anchor="middle" x="1466.67" y="-250" font-family="Helvetica,sans-Serif" font-size="10.00">Gradient Descent</text>
</g>
<!-- module_approximation&#45;&gt;concept_gradient_descent -->
<g id="edge12" class="edge">
<title>module_approximation&#45;&gt;concept_gradient_descent</title>
<path fill="none" stroke="#5a5a5a" d="M1461.75,-496.84C1461.75,-496.84 1461.75,-280.4 1461.75,-280.4"/>
<polygon fill="#5a5a5a" stroke="#5a5a5a" points="1464.2,-280.4 1461.75,-273.4 1459.3,-280.4 1464.2,-280.4"/>
<text xml:space="preserve" text-anchor="middle" x="1423.55" y="-394.77" font-family="Helvetica,sans-Serif" font-size="8.00">COVERS</text>
</g>
<!-- concept_least_squares -->
<g id="node12" class="node">
<title>concept_least_squares</title>
<path fill="#e9c46a" stroke="#c9a945" d="M1396.22,-153.75C1396.22,-153.75 1271.12,-153.75 1271.12,-153.75 1265.12,-153.75 1259.12,-147.75 1259.12,-141.75 1259.12,-141.75 1259.12,-129.75 1259.12,-129.75 1259.12,-123.75 1265.12,-117.75 1271.12,-117.75 1271.12,-117.75 1396.22,-117.75 1396.22,-117.75 1402.22,-117.75 1408.22,-123.75 1408.22,-129.75 1408.22,-129.75 1408.22,-141.75 1408.22,-141.75 1408.22,-147.75 1402.22,-153.75 1396.22,-153.75"/>
<text xml:space="preserve" text-anchor="middle" x="1333.67" y="-132.25" font-family="Helvetica,sans-Serif" font-size="10.00">Least Squares Approximation</text>
</g>
<!-- module_approximation&#45;&gt;concept_least_squares -->
<g id="edge15" class="edge">
<title>module_approximation&#45;&gt;concept_least_squares</title>
<path fill="none" stroke="#5a5a5a" d="M1453.55,-521C1395.36,-521 1333.67,-521 1333.67,-521 1333.67,-521 1333.67,-162.59 1333.67,-162.59"/>
<polygon fill="#5a5a5a" stroke="#5a5a5a" points="1336.13,-162.59 1333.68,-155.59 1331.23,-162.59 1336.13,-162.59"/>
<text xml:space="preserve" text-anchor="middle" x="1350.55" y="-322.77" font-family="Helvetica,sans-Serif" font-size="8.00">COVERS</text>
</g>
<!-- concept_minimax_approximation -->
<g id="node13" class="node">
<title>concept_minimax_approximation</title>
<path fill="#e9c46a" stroke="#c9a945" d="M1808.72,-415.5C1808.72,-415.5 1680.62,-415.5 1680.62,-415.5 1674.62,-415.5 1668.62,-409.5 1668.62,-403.5 1668.62,-403.5 1668.62,-391.5 1668.62,-391.5 1668.62,-385.5 1674.62,-379.5 1680.62,-379.5 1680.62,-379.5 1808.72,-379.5 1808.72,-379.5 1814.72,-379.5 1820.72,-385.5 1820.72,-391.5 1820.72,-391.5 1820.72,-403.5 1820.72,-403.5 1820.72,-409.5 1814.72,-415.5 1808.72,-415.5"/>
<text xml:space="preserve" text-anchor="middle" x="1744.67" y="-394" font-family="Helvetica,sans-Serif" font-size="10.00">Best (Minimax) Approximation</text>
</g>
<!-- module_approximation&#45;&gt;concept_minimax_approximation -->
<g id="edge13" class="edge">
<title>module_approximation&#45;&gt;concept_minimax_approximation</title>
<path fill="none" stroke="#5a5a5a" d="M1650.22,-496.93C1650.22,-463.95 1650.22,-398 1650.22,-398 1650.22,-398 1659.92,-398 1659.92,-398"/>
<polygon fill="#5a5a5a" stroke="#5a5a5a" points="1659.92,-400.45 1666.92,-398 1659.92,-395.55 1659.92,-400.45"/>
<text xml:space="preserve" text-anchor="middle" x="1700.55" y="-453.65" font-family="Helvetica,sans-Serif" font-size="8.00">COVERS</text>
</g>
<!-- concept_newton_optimization -->
<g id="node15" class="node">
<title>concept_newton_optimization</title>
<path fill="#e9c46a" stroke="#c9a945" d="M1627.72,-415.5C1627.72,-415.5 1481.62,-415.5 1481.62,-415.5 1475.62,-415.5 1469.62,-409.5 1469.62,-403.5 1469.62,-403.5 1469.62,-391.5 1469.62,-391.5 1469.62,-385.5 1475.62,-379.5 1481.62,-379.5 1481.62,-379.5 1627.72,-379.5 1627.72,-379.5 1633.72,-379.5 1639.72,-385.5 1639.72,-391.5 1639.72,-391.5 1639.72,-403.5 1639.72,-403.5 1639.72,-409.5 1633.72,-415.5 1627.72,-415.5"/>
<text xml:space="preserve" text-anchor="middle" x="1554.67" y="-394" font-family="Helvetica,sans-Serif" font-size="10.00">Newton&#39;s Method for Optimization</text>
</g>
<!-- module_approximation&#45;&gt;concept_newton_optimization -->
<g id="edge11" class="edge">
<title>module_approximation&#45;&gt;concept_newton_optimization</title>
<path fill="none" stroke="#5a5a5a" d="M1554.67,-496.85C1554.67,-496.85 1554.67,-424.28 1554.67,-424.28"/>
<polygon fill="#5a5a5a" stroke="#5a5a5a" points="1557.13,-424.28 1554.68,-417.28 1552.23,-424.28 1557.13,-424.28"/>
<text xml:space="preserve" text-anchor="middle" x="1571.55" y="-453.65" font-family="Helvetica,sans-Serif" font-size="8.00">COVERS</text>
</g>
<!-- concept_orthogonal_polynomials -->
<g id="node17" class="node">
<title>concept_orthogonal_polynomials</title>
<path fill="#e9c46a" stroke="#c9a945" d="M1886.22,-271.5C1886.22,-271.5 1785.12,-271.5 1785.12,-271.5 1779.12,-271.5 1773.12,-265.5 1773.12,-259.5 1773.12,-259.5 1773.12,-247.5 1773.12,-247.5 1773.12,-241.5 1779.12,-235.5 1785.12,-235.5 1785.12,-235.5 1886.22,-235.5 1886.22,-235.5 1892.22,-235.5 1898.22,-241.5 1898.22,-247.5 1898.22,-247.5 1898.22,-259.5 1898.22,-259.5 1898.22,-265.5 1892.22,-271.5 1886.22,-271.5"/>
<text xml:space="preserve" text-anchor="middle" x="1835.67" y="-250" font-family="Helvetica,sans-Serif" font-size="10.00">Orthogonal Polynomials</text>
</g>
<!-- module_approximation&#45;&gt;concept_orthogonal_polynomials -->
<g id="edge14" class="edge">
<title>module_approximation&#45;&gt;concept_orthogonal_polynomials</title>
<path fill="none" stroke="#5a5a5a" d="M1644.97,-496.88C1644.97,-437.41 1644.97,-254 1644.97,-254 1644.97,-254 1764.19,-254 1764.19,-254"/>
<polygon fill="#5a5a5a" stroke="#5a5a5a" points="1764.19,-256.45 1771.19,-254 1764.19,-251.55 1764.19,-256.45"/>
<text xml:space="preserve" text-anchor="middle" x="1895.55" y="-394.77" font-family="Helvetica,sans-Serif" font-size="8.00">COVERS</text>
</g>
<!-- module_integration -->
<g id="node2" class="node">
<title>module_integration</title>
<path fill="#f4a261" stroke="#d88c3f" d="M2185.98,-533.25C2185.98,-533.25 2095.38,-533.25 2095.38,-533.25 2089.38,-533.25 2083.38,-527.25 2083.38,-521.25 2083.38,-521.25 2083.38,-509.25 2083.38,-509.25 2083.38,-503.25 2089.38,-497.25 2095.38,-497.25 2095.38,-497.25 2185.98,-497.25 2185.98,-497.25 2191.98,-497.25 2197.98,-503.25 2197.98,-509.25 2197.98,-509.25 2197.98,-521.25 2197.98,-521.25 2197.98,-527.25 2191.98,-533.25 2185.98,-533.25"/>
<text xml:space="preserve" text-anchor="middle" x="2140.68" y="-511.75" font-family="Helvetica,sans-Serif" font-size="10.00">Numerical Integration</text>
</g>
<!-- concept_definite_integrals -->
<g id="node6" class="node">
<title>concept_definite_integrals</title>
<path fill="#e9c46a" stroke="#c9a945" d="M1972.6,-36C1972.6,-36 1900.75,-36 1900.75,-36 1894.75,-36 1888.75,-30 1888.75,-24 1888.75,-24 1888.75,-12 1888.75,-12 1888.75,-6 1894.75,0 1900.75,0 1900.75,0 1972.6,0 1972.6,0 1978.6,0 1984.6,-6 1984.6,-12 1984.6,-12 1984.6,-24 1984.6,-24 1984.6,-30 1978.6,-36 1972.6,-36"/>
<text xml:space="preserve" text-anchor="middle" x="1936.67" y="-14.5" font-family="Helvetica,sans-Serif" font-size="10.00">Definite Integrals</text>
</g>
<!-- module_integration&#45;&gt;concept_definite_integrals -->
<g id="edge9" class="edge">
<title>module_integration&#45;&gt;concept_definite_integrals</title>
<path fill="none" stroke="#5a5a5a" d="M2083.14,-515C2019.86,-515 1927.02,-515 1927.02,-515 1927.02,-515 1927.02,-44.79 1927.02,-44.79"/>
<polygon fill="#5a5a5a" stroke="#5a5a5a" points="1929.47,-44.79 1927.02,-37.79 1924.57,-44.79 1929.47,-44.79"/>
<text xml:space="preserve" text-anchor="middle" x="1973.55" y="-250.78" font-family="Helvetica,sans-Serif" font-size="8.00">COVERS</text>
</g>
<!-- concept_gaussian_quadrature -->
<g id="node9" class="node">
<title>concept_gaussian_quadrature</title>
<path fill="#e9c46a" stroke="#c9a945" d="M2305.6,-415.5C2305.6,-415.5 2215.75,-415.5 2215.75,-415.5 2209.75,-415.5 2203.75,-409.5 2203.75,-403.5 2203.75,-403.5 2203.75,-391.5 2203.75,-391.5 2203.75,-385.5 2209.75,-379.5 2215.75,-379.5 2215.75,-379.5 2305.6,-379.5 2305.6,-379.5 2311.6,-379.5 2317.6,-385.5 2317.6,-391.5 2317.6,-391.5 2317.6,-403.5 2317.6,-403.5 2317.6,-409.5 2311.6,-415.5 2305.6,-415.5"/>
<text xml:space="preserve" text-anchor="middle" x="2260.68" y="-394" font-family="Helvetica,sans-Serif" font-size="10.00">Gaussian Quadrature</text>
</g>
<!-- module_integration&#45;&gt;concept_gaussian_quadrature -->
<g id="edge6" class="edge">
<title>module_integration&#45;&gt;concept_gaussian_quadrature</title>
<path fill="none" stroke="#5a5a5a" d="M2184.11,-496.93C2184.11,-463.95 2184.11,-398 2184.11,-398 2184.11,-398 2194.92,-398 2194.92,-398"/>
<polygon fill="#5a5a5a" stroke="#5a5a5a" points="2194.92,-400.45 2201.92,-398 2194.92,-395.55 2194.92,-400.45"/>
<text xml:space="preserve" text-anchor="middle" x="2242.55" y="-453.65" font-family="Helvetica,sans-Serif" font-size="8.00">COVERS</text>
</g>
<!-- concept_riemann_sums -->
<g id="node19" class="node">
<title>concept_riemann_sums</title>
<path fill="#e9c46a" stroke="#c9a945" d="M2090.23,-36C2090.23,-36 2025.13,-36 2025.13,-36 2019.13,-36 2013.13,-30 2013.13,-24 2013.13,-24 2013.13,-12 2013.13,-12 2013.13,-6 2019.13,0 2025.13,0 2025.13,0 2090.23,0 2090.23,0 2096.23,0 2102.23,-6 2102.23,-12 2102.23,-12 2102.23,-24 2102.23,-24 2102.23,-30 2096.23,-36 2090.23,-36"/>
<text xml:space="preserve" text-anchor="middle" x="2057.68" y="-14.5" font-family="Helvetica,sans-Serif" font-size="10.00">Riemann Sums</text>
</g>
<!-- module_integration&#45;&gt;concept_riemann_sums -->
<g id="edge10" class="edge">
<title>module_integration&#45;&gt;concept_riemann_sums</title>
<path fill="none" stroke="#5a5a5a" d="M2089.66,-496.96C2089.66,-496.96 2089.66,-44.97 2089.66,-44.97"/>
<polygon fill="#5a5a5a" stroke="#5a5a5a" points="2092.11,-44.97 2089.66,-37.97 2087.21,-44.97 2092.11,-44.97"/>
<text xml:space="preserve" text-anchor="middle" x="2084.55" y="-250.78" font-family="Helvetica,sans-Serif" font-size="8.00">COVERS</text>
</g>
<!-- concept_simpson -->
<g id="node21" class="node">
<title>concept_simpson</title>
<path fill="#e9c46a" stroke="#c9a945" d="M2234.98,-271.5C2234.98,-271.5 2168.38,-271.5 2168.38,-271.5 2162.38,-271.5 2156.38,-265.5 2156.38,-259.5 2156.38,-259.5 2156.38,-247.5 2156.38,-247.5 2156.38,-241.5 2162.38,-235.5 2168.38,-235.5 2168.38,-235.5 2234.98,-235.5 2234.98,-235.5 2240.98,-235.5 2246.98,-241.5 2246.98,-247.5 2246.98,-247.5 2246.98,-259.5 2246.98,-259.5 2246.98,-265.5 2240.98,-271.5 2234.98,-271.5"/>
<text xml:space="preserve" text-anchor="middle" x="2201.68" y="-250" font-family="Helvetica,sans-Serif" font-size="10.00">Simpson&#39;s Rule</text>
</g>
<!-- module_integration&#45;&gt;concept_simpson -->
<g id="edge7" class="edge">
<title>module_integration&#45;&gt;concept_simpson</title>
<path fill="none" stroke="#5a5a5a" d="M2170.24,-496.84C2170.24,-496.84 2170.24,-280.4 2170.24,-280.4"/>
<polygon fill="#5a5a5a" stroke="#5a5a5a" points="2172.69,-280.4 2170.24,-273.4 2167.79,-280.4 2172.69,-280.4"/>
<text xml:space="preserve" text-anchor="middle" x="2157.55" y="-394.77" font-family="Helvetica,sans-Serif" font-size="8.00">COVERS</text>
</g>
<!-- concept_trapezoidal -->
<g id="node23" class="node">
<title>concept_trapezoidal</title>
<path fill="#e9c46a" stroke="#c9a945" d="M2212.23,-153.75C2212.23,-153.75 2141.12,-153.75 2141.12,-153.75 2135.12,-153.75 2129.12,-147.75 2129.12,-141.75 2129.12,-141.75 2129.12,-129.75 2129.12,-129.75 2129.12,-123.75 2135.12,-117.75 2141.12,-117.75 2141.12,-117.75 2212.23,-117.75 2212.23,-117.75 2218.23,-117.75 2224.23,-123.75 2224.23,-129.75 2224.23,-129.75 2224.23,-141.75 2224.23,-141.75 2224.23,-147.75 2218.23,-153.75 2212.23,-153.75"/>
<text xml:space="preserve" text-anchor="middle" x="2176.68" y="-132.25" font-family="Helvetica,sans-Serif" font-size="10.00">Trapezoidal Rule</text>
</g>
<!-- module_integration&#45;&gt;concept_trapezoidal -->
<g id="edge8" class="edge">
<title>module_integration&#45;&gt;concept_trapezoidal</title>
<path fill="none" stroke="#5a5a5a" d="M2142.75,-496.95C2142.75,-496.95 2142.75,-162.38 2142.75,-162.38"/>
<polygon fill="#5a5a5a" stroke="#5a5a5a" points="2145.2,-162.38 2142.75,-155.38 2140.3,-162.38 2145.2,-162.38"/>
<text xml:space="preserve" text-anchor="middle" x="2378.55" y="-322.77" font-family="Helvetica,sans-Serif" font-size="8.00">COVERS</text>
</g>
<!-- module_interpolation -->
<g id="node3" class="node">
<title>module_interpolation</title>
<path fill="#f4a261" stroke="#d88c3f" d="M492.1,-533.25C492.1,-533.25 441.25,-533.25 441.25,-533.25 435.25,-533.25 429.25,-527.25 429.25,-521.25 429.25,-521.25 429.25,-509.25 429.25,-509.25 429.25,-503.25 435.25,-497.25 441.25,-497.25 441.25,-497.25 492.1,-497.25 492.1,-497.25 498.1,-497.25 504.1,-503.25 504.1,-509.25 504.1,-509.25 504.1,-521.25 504.1,-521.25 504.1,-527.25 498.1,-533.25 492.1,-533.25"/>
<text xml:space="preserve" text-anchor="middle" x="466.67" y="-511.75" font-family="Helvetica,sans-Serif" font-size="10.00">Interpolation</text>
</g>
<!-- concept_divided_differences -->
<g id="node7" class="node">
<title>concept_divided_differences</title>
<path fill="#e9c46a" stroke="#c9a945" d="M621.22,-271.5C621.22,-271.5 538.12,-271.5 538.12,-271.5 532.12,-271.5 526.12,-265.5 526.12,-259.5 526.12,-259.5 526.12,-247.5 526.12,-247.5 526.12,-241.5 532.12,-235.5 538.12,-235.5 538.12,-235.5 621.22,-235.5 621.22,-235.5 627.22,-235.5 633.22,-241.5 633.22,-247.5 633.22,-247.5 633.22,-259.5 633.22,-259.5 633.22,-265.5 627.22,-271.5 621.22,-271.5"/>
<text xml:space="preserve" text-anchor="middle" x="579.67" y="-250" font-family="Helvetica,sans-Serif" font-size="10.00">Divided Differences</text>
</g>
<!-- module_interpolation&#45;&gt;concept_divided_differences -->
<g id="edge3" class="edge">
<title>module_interpolation&#45;&gt;concept_divided_differences</title>
<path fill="none" stroke="#5a5a5a" d="M504.3,-509C537.17,-509 579.67,-509 579.67,-509 579.67,-509 579.67,-280.39 579.67,-280.39"/>
<polygon fill="#5a5a5a" stroke="#5a5a5a" points="582.13,-280.39 579.68,-273.39 577.23,-280.39 582.13,-280.39"/>
<text xml:space="preserve" text-anchor="middle" x="597.55" y="-394.77" font-family="Helvetica,sans-Serif" font-size="8.00">COVERS</text>
</g>
<!-- concept_lagrange -->
<g id="node11" class="node">
<title>concept_lagrange</title>
<path fill="#e9c46a" stroke="#c9a945" d="M357.47,-153.75C357.47,-153.75 263.87,-153.75 263.87,-153.75 257.87,-153.75 251.87,-147.75 251.87,-141.75 251.87,-141.75 251.87,-129.75 251.87,-129.75 251.87,-123.75 257.87,-117.75 263.87,-117.75 263.87,-117.75 357.47,-117.75 357.47,-117.75 363.47,-117.75 369.47,-123.75 369.47,-129.75 369.47,-129.75 369.47,-141.75 369.47,-141.75 369.47,-147.75 363.47,-153.75 357.47,-153.75"/>
<text xml:space="preserve" text-anchor="middle" x="310.67" y="-132.25" font-family="Helvetica,sans-Serif" font-size="10.00">Lagrange Interpolation</text>
</g>
<!-- module_interpolation&#45;&gt;concept_lagrange -->
<g id="edge4" class="edge">
<title>module_interpolation&#45;&gt;concept_lagrange</title>
<path fill="none" stroke="#5a5a5a" d="M428.78,-509C393,-509 344.79,-509 344.79,-509 344.79,-509 344.79,-162.52 344.79,-162.52"/>
<polygon fill="#5a5a5a" stroke="#5a5a5a" points="347.24,-162.52 344.79,-155.52 342.34,-162.52 347.24,-162.52"/>
<text xml:space="preserve" text-anchor="middle" x="380.55" y="-322.77" font-family="Helvetica,sans-Serif" font-size="8.00">COVERS</text>
</g>
<!-- concept_newton_interpolation -->
<g id="node14" class="node">
<title>concept_newton_interpolation</title>
<path fill="#e9c46a" stroke="#c9a945" d="M510.47,-415.5C510.47,-415.5 422.87,-415.5 422.87,-415.5 416.87,-415.5 410.87,-409.5 410.87,-403.5 410.87,-403.5 410.87,-391.5 410.87,-391.5 410.87,-385.5 416.87,-379.5 422.87,-379.5 422.87,-379.5 510.47,-379.5 510.47,-379.5 516.47,-379.5 522.47,-385.5 522.47,-391.5 522.47,-391.5 522.47,-403.5 522.47,-403.5 522.47,-409.5 516.47,-415.5 510.47,-415.5"/>
<text xml:space="preserve" text-anchor="middle" x="466.67" y="-394" font-family="Helvetica,sans-Serif" font-size="10.00">Newton Interpolation</text>
</g>
<!-- module_interpolation&#45;&gt;concept_newton_interpolation -->
<g id="edge2" class="edge">
<title>module_interpolation&#45;&gt;concept_newton_interpolation</title>
<path fill="none" stroke="#5a5a5a" d="M466.67,-496.85C466.67,-496.85 466.67,-424.28 466.67,-424.28"/>
<polygon fill="#5a5a5a" stroke="#5a5a5a" points="469.13,-424.28 466.68,-417.28 464.23,-424.28 469.13,-424.28"/>
<text xml:space="preserve" text-anchor="middle" x="483.55" y="-453.65" font-family="Helvetica,sans-Serif" font-size="8.00">COVERS</text>
</g>
<!-- concept_polynomial_basics -->
<g id="node18" class="node">
<title>concept_polynomial_basics</title>
<path fill="#e9c46a" stroke="#c9a945" d="M808.97,-36C808.97,-36 730.38,-36 730.38,-36 724.38,-36 718.38,-30 718.38,-24 718.38,-24 718.38,-12 718.38,-12 718.38,-6 724.38,0 730.38,0 730.38,0 808.97,0 808.97,0 814.97,0 820.97,-6 820.97,-12 820.97,-12 820.97,-24 820.97,-24 820.97,-30 814.97,-36 808.97,-36"/>
<text xml:space="preserve" text-anchor="middle" x="769.67" y="-14.5" font-family="Helvetica,sans-Serif" font-size="10.00">Polynomial Basics</text>
</g>
<!-- module_interpolation&#45;&gt;concept_polynomial_basics -->
<g id="edge5" class="edge">
<title>module_interpolation&#45;&gt;concept_polynomial_basics</title>
<path fill="none" stroke="#5a5a5a" d="M504.56,-521C568.27,-521 689.99,-521 689.99,-521 689.99,-521 689.99,-24 689.99,-24 689.99,-24 709.8,-24 709.8,-24"/>
<polygon fill="#5a5a5a" stroke="#5a5a5a" points="709.8,-26.45 716.8,-24 709.8,-21.55 709.8,-26.45"/>
<text xml:space="preserve" text-anchor="middle" x="708.55" y="-250.78" font-family="Helvetica,sans-Serif" font-size="8.00">COVERS</text>
</g>
<!-- concept_spline_interpolation -->
<g id="node22" class="node">
<title>concept_spline_interpolation</title>
<path fill="#e9c46a" stroke="#c9a945" d="M308.1,-271.5C308.1,-271.5 227.25,-271.5 227.25,-271.5 221.25,-271.5 215.25,-265.5 215.25,-259.5 215.25,-259.5 215.25,-247.5 215.25,-247.5 215.25,-241.5 221.25,-235.5 227.25,-235.5 227.25,-235.5 308.1,-235.5 308.1,-235.5 314.1,-235.5 320.1,-241.5 320.1,-247.5 320.1,-247.5 320.1,-259.5 320.1,-259.5 320.1,-265.5 314.1,-271.5 308.1,-271.5"/>
<text xml:space="preserve" text-anchor="middle" x="267.67" y="-250" font-family="Helvetica,sans-Serif" font-size="10.00">Spline Interpolation</text>
</g>
<!-- module_interpolation&#45;&gt;concept_spline_interpolation -->
<g id="edge1" class="edge">
<title>module_interpolation&#45;&gt;concept_spline_interpolation</title>
<path fill="none" stroke="#5a5a5a" d="M428.78,-521C371.04,-521 267.67,-521 267.67,-521 267.67,-521 267.67,-280.4 267.67,-280.4"/>
<polygon fill="#5a5a5a" stroke="#5a5a5a" points="270.13,-280.4 267.68,-273.4 265.23,-280.4 270.13,-280.4"/>
<text xml:space="preserve" text-anchor="middle" x="293.55" y="-394.77" font-family="Helvetica,sans-Serif" font-size="8.00">COVERS</text>
</g>
<!-- module_root_finding -->
<g id="node4" class="node">
<title>module_root_finding</title>
<path fill="#f4a261" stroke="#d88c3f" d="M965.47,-533.25C965.47,-533.25 841.88,-533.25 841.88,-533.25 835.88,-533.25 829.88,-527.25 829.88,-521.25 829.88,-521.25 829.88,-509.25 829.88,-509.25 829.88,-503.25 835.88,-497.25 841.88,-497.25 841.88,-497.25 965.47,-497.25 965.47,-497.25 971.47,-497.25 977.47,-503.25 977.47,-509.25 977.47,-509.25 977.47,-521.25 977.47,-521.25 977.47,-527.25 971.47,-533.25 965.47,-533.25"/>
<text xml:space="preserve" text-anchor="middle" x="903.67" y="-511.75" font-family="Helvetica,sans-Serif" font-size="10.00">Solving Non&#45;linear Equations</text>
</g>
<!-- concept_bissection -->
<g id="node5" class="node">
<title>concept_bissection</title>
<path fill="#e9c46a" stroke="#c9a945" d="M1001.35,-153.75C1001.35,-153.75 928,-153.75 928,-153.75 922,-153.75 916,-147.75 916,-141.75 916,-141.75 916,-129.75 916,-129.75 916,-123.75 922,-117.75 928,-117.75 928,-117.75 1001.35,-117.75 1001.35,-117.75 1007.35,-117.75 1013.35,-123.75 1013.35,-129.75 1013.35,-129.75 1013.35,-141.75 1013.35,-141.75 1013.35,-147.75 1007.35,-153.75 1001.35,-153.75"/>
<text xml:space="preserve" text-anchor="middle" x="964.67" y="-132.25" font-family="Helvetica,sans-Serif" font-size="10.00">Bisection Method</text>
</g>
<!-- module_root_finding&#45;&gt;concept_bissection -->
<g id="edge19" class="edge">
<title>module_root_finding&#45;&gt;concept_bissection</title>
<path fill="none" stroke="#5a5a5a" d="M977.72,-509C988.16,-509 995.41,-509 995.41,-509 995.41,-509 995.41,-162.52 995.41,-162.52"/>
<polygon fill="#5a5a5a" stroke="#5a5a5a" points="997.86,-162.52 995.41,-155.52 992.96,-162.52 997.86,-162.52"/>
<text xml:space="preserve" text-anchor="middle" x="1035.55" y="-322.77" font-family="Helvetica,sans-Serif" font-size="8.00">COVERS</text>
</g>
<!-- concept_fixed_point -->
<g id="node8" class="node">
<title>concept_fixed_point</title>
<path fill="#e9c46a" stroke="#c9a945" d="M817.35,-343.5C817.35,-343.5 732,-343.5 732,-343.5 726,-343.5 720,-337.5 720,-331.5 720,-331.5 720,-319.5 720,-319.5 720,-313.5 726,-307.5 732,-307.5 732,-307.5 817.35,-307.5 817.35,-307.5 823.35,-307.5 829.35,-313.5 829.35,-319.5 829.35,-319.5 829.35,-331.5 829.35,-331.5 829.35,-337.5 823.35,-343.5 817.35,-343.5"/>
<text xml:space="preserve" text-anchor="middle" x="774.67" y="-322" font-family="Helvetica,sans-Serif" font-size="10.00">Fixed&#45;Point Iteration</text>
</g>
<!-- module_root_finding&#45;&gt;concept_fixed_point -->
<g id="edge18" class="edge">
<title>module_root_finding&#45;&gt;concept_fixed_point</title>
<path fill="none" stroke="#5a5a5a" d="M838.21,-496.76C838.21,-449.14 838.21,-326 838.21,-326 838.21,-326 837.35,-326 837.35,-326"/>
<polygon fill="#5a5a5a" stroke="#5a5a5a" points="838.15,-323.55 831.15,-326 838.15,-328.45 838.15,-323.55"/>
<text xml:space="preserve" text-anchor="middle" x="884.55" y="-453.65" font-family="Helvetica,sans-Serif" font-size="8.00">COVERS</text>
</g>
<!-- concept_newton_raphson -->
<g id="node16" class="node">
<title>concept_newton_raphson</title>
<path fill="#e9c46a" stroke="#c9a945" d="M962.97,-271.5C962.97,-271.5 854.38,-271.5 854.38,-271.5 848.38,-271.5 842.38,-265.5 842.38,-259.5 842.38,-259.5 842.38,-247.5 842.38,-247.5 842.38,-241.5 848.38,-235.5 854.38,-235.5 854.38,-235.5 962.97,-235.5 962.97,-235.5 968.97,-235.5 974.97,-241.5 974.97,-247.5 974.97,-247.5 974.97,-259.5 974.97,-259.5 974.97,-265.5 968.97,-271.5 962.97,-271.5"/>
<text xml:space="preserve" text-anchor="middle" x="908.67" y="-250" font-family="Helvetica,sans-Serif" font-size="10.00">Newton&#45;Raphson Method</text>
</g>
<!-- module_root_finding&#45;&gt;concept_newton_raphson -->
<g id="edge17" class="edge">
<title>module_root_finding&#45;&gt;concept_newton_raphson</title>
<path fill="none" stroke="#5a5a5a" d="M930.77,-496.84C930.77,-496.84 930.77,-280.4 930.77,-280.4"/>
<polygon fill="#5a5a5a" stroke="#5a5a5a" points="933.23,-280.4 930.78,-273.4 928.33,-280.4 933.23,-280.4"/>
<text xml:space="preserve" text-anchor="middle" x="957.55" y="-394.77" font-family="Helvetica,sans-Serif" font-size="8.00">COVERS</text>
</g>
<!-- concept_secant -->
<g id="node20" class="node">
<title>concept_secant</title>
<path fill="#e9c46a" stroke="#c9a945" d="M811.47,-415.5C811.47,-415.5 747.88,-415.5 747.88,-415.5 741.88,-415.5 735.88,-409.5 735.88,-403.5 735.88,-403.5 735.88,-391.5 735.88,-391.5 735.88,-385.5 741.88,-379.5 747.88,-379.5 747.88,-379.5 811.47,-379.5 811.47,-379.5 817.47,-379.5 823.47,-385.5 823.47,-391.5 823.47,-391.5 823.47,-403.5 823.47,-403.5 823.47,-409.5 817.47,-415.5 811.47,-415.5"/>
<text xml:space="preserve" text-anchor="middle" x="779.67" y="-394" font-family="Helvetica,sans-Serif" font-size="10.00">Secant Method</text>
</g>
<!-- module_root_finding&#45;&gt;concept_secant -->
<g id="edge16" class="edge">
<title>module_root_finding&#45;&gt;concept_secant</title>
<path fill="none" stroke="#5a5a5a" d="M834.04,-496.88C834.04,-465.28 834.04,-404 834.04,-404 834.04,-404 832.33,-404 832.33,-404"/>
<polygon fill="#5a5a5a" stroke="#5a5a5a" points="832.33,-401.55 825.33,-404 832.33,-406.45 832.33,-401.55"/>
<text xml:space="preserve" text-anchor="middle" x="806.55" y="-453.65" font-family="Helvetica,sans-Serif" font-size="8.00">COVERS</text>
</g>
<!-- concept_bissection&#45;&gt;concept_polynomial_basics -->
<g id="edge22" class="edge">
<title>concept_bissection&#45;&gt;concept_polynomial_basics</title>
<path fill="none" stroke="#1f78b4" stroke-dasharray="5,2" d="M915.83,-130C861.29,-130 780.58,-130 780.58,-130 780.58,-130 780.58,-45.01 780.58,-45.01"/>
<polygon fill="#1f78b4" stroke="#1f78b4" points="783.04,-45.01 780.59,-38.01 778.14,-45.01 783.04,-45.01"/>
<text xml:space="preserve" text-anchor="middle" x="910.67" y="-74.15" font-family="Helvetica,sans-Serif" font-size="8.00" fill="#1f78b4">REQUIRES</text>
</g>
<!-- resource_bissection_exercise -->
<g id="node24" class="node">
<title>resource_bissection_exercise</title>
<path fill="#8ab17d" stroke="#6b9460" d="M1037.97,-36C1037.97,-36 881.38,-36 881.38,-36 875.38,-36 869.38,-30 869.38,-24 869.38,-24 869.38,-12 869.38,-12 869.38,-6 875.38,0 881.38,0 881.38,0 1037.97,0 1037.97,0 1043.97,0 1049.97,-6 1049.97,-12 1049.97,-12 1049.97,-24 1049.97,-24 1049.97,-30 1043.97,-36 1037.97,-36"/>
<text xml:space="preserve" text-anchor="middle" x="959.67" y="-14.5" font-family="Helvetica,sans-Serif" font-size="10.00">Bisection Method Practice Problems</text>
</g>
<!-- concept_bissection&#45;&gt;resource_bissection_exercise -->
<g id="edge49" class="edge">
<title>concept_bissection&#45;&gt;resource_bissection_exercise</title>
<path fill="none" stroke="#008856" stroke-dasharray="1,5" d="M964.67,-117.35C964.67,-117.35 964.67,-44.78 964.67,-44.78"/>
<polygon fill="#008856" stroke="#008856" points="967.13,-44.78 964.68,-37.78 962.23,-44.78 967.13,-44.78"/>
<text xml:space="preserve" text-anchor="middle" x="999.05" y="-74.15" font-family="Helvetica,sans-Serif" font-size="8.00" fill="#008856">REMEDIATES_TO</text>
</g>
<!-- concept_fixed_point&#45;&gt;concept_polynomial_basics -->
<g id="edge21" class="edge">
<title>concept_fixed_point&#45;&gt;concept_polynomial_basics</title>
<path fill="none" stroke="#1f78b4" stroke-dasharray="5,2" d="M760.39,-307.19C760.39,-307.19 760.39,-44.73 760.39,-44.73"/>
<polygon fill="#1f78b4" stroke="#1f78b4" points="762.84,-44.73 760.39,-37.73 757.94,-44.73 762.84,-44.73"/>
<text xml:space="preserve" text-anchor="middle" x="790.67" y="-191.9" font-family="Helvetica,sans-Serif" font-size="8.00" fill="#1f78b4">REQUIRES</text>
</g>
<!-- concept_gaussian_quadrature&#45;&gt;concept_simpson -->
<g id="edge34" class="edge">
<title>concept_gaussian_quadrature&#45;&gt;concept_simpson</title>
<path fill="none" stroke="#1f78b4" stroke-dasharray="5,2" d="M2225.36,-379.26C2225.36,-379.26 2225.36,-280.1 2225.36,-280.1"/>
<polygon fill="#1f78b4" stroke="#1f78b4" points="2227.81,-280.1 2225.36,-273.1 2222.91,-280.1 2227.81,-280.1"/>
<text xml:space="preserve" text-anchor="middle" x="2246.68" y="-322.77" font-family="Helvetica,sans-Serif" font-size="8.00" fill="#1f78b4">REQUIRES</text>
</g>
<!-- resource_gaussian_tutorial -->
<g id="node25" class="node">
<title>resource_gaussian_tutorial</title>
<path fill="#8ab17d" stroke="#6b9460" d="M2600.35,-36C2600.35,-36 2461,-36 2461,-36 2455,-36 2449,-30 2449,-24 2449,-24 2449,-12 2449,-12 2449,-6 2455,0 2461,0 2461,0 2600.35,0 2600.35,0 2606.35,0 2612.35,-6 2612.35,-12 2612.35,-12 2612.35,-24 2612.35,-24 2612.35,-30 2606.35,-36 2600.35,-36"/>
<text xml:space="preserve" text-anchor="middle" x="2530.68" y="-14.5" font-family="Helvetica,sans-Serif" font-size="10.00">Gaussian Quadrature Deep Dive</text>
</g>
<!-- concept_gaussian_quadrature&#45;&gt;resource_gaussian_tutorial -->
<g id="edge45" class="edge">
<title>concept_gaussian_quadrature&#45;&gt;resource_gaussian_tutorial</title>
<path fill="none" stroke="#008856" stroke-dasharray="1,5" d="M2317.94,-398C2397.19,-398 2530.68,-398 2530.68,-398 2530.68,-398 2530.68,-44.84 2530.68,-44.84"/>
<polygon fill="#008856" stroke="#008856" points="2533.13,-44.84 2530.68,-37.84 2528.23,-44.84 2533.13,-44.84"/>
<text xml:space="preserve" text-anchor="middle" x="2564.05" y="-191.9" font-family="Helvetica,sans-Serif" font-size="8.00" fill="#008856">REMEDIATES_TO</text>
</g>
<!-- resource_gradient_video -->
<g id="node26" class="node">
<title>resource_gradient_video</title>
<path fill="#8ab17d" stroke="#6b9460" d="M1527.72,-36C1527.72,-36 1405.62,-36 1405.62,-36 1399.62,-36 1393.62,-30 1393.62,-24 1393.62,-24 1393.62,-12 1393.62,-12 1393.62,-6 1399.62,0 1405.62,0 1405.62,0 1527.72,0 1527.72,0 1533.72,0 1539.72,-6 1539.72,-12 1539.72,-12 1539.72,-24 1539.72,-24 1539.72,-30 1533.72,-36 1527.72,-36"/>
<text xml:space="preserve" text-anchor="middle" x="1466.67" y="-14.5" font-family="Helvetica,sans-Serif" font-size="10.00">Gradient Descent Visualized</text>
</g>
<!-- concept_gradient_descent&#45;&gt;resource_gradient_video -->
<g id="edge46" class="edge">
<title>concept_gradient_descent&#45;&gt;resource_gradient_video</title>
<path fill="none" stroke="#008856" stroke-dasharray="1,5" d="M1466.67,-235.02C1466.67,-235.02 1466.67,-44.91 1466.67,-44.91"/>
<polygon fill="#008856" stroke="#008856" points="1469.13,-44.91 1466.68,-37.91 1464.23,-44.91 1469.13,-44.91"/>
<text xml:space="preserve" text-anchor="middle" x="1500.05" y="-133.03" font-family="Helvetica,sans-Serif" font-size="8.00" fill="#008856">REMEDIATES_TO</text>
</g>
<!-- concept_lagrange&#45;&gt;concept_polynomial_basics -->
<g id="edge25" class="edge">
<title>concept_lagrange&#45;&gt;concept_polynomial_basics</title>
<path fill="none" stroke="#1f78b4" stroke-dasharray="5,2" d="M369.95,-142C487.78,-142 740.19,-142 740.19,-142 740.19,-142 740.19,-44.81 740.19,-44.81"/>
<polygon fill="#1f78b4" stroke="#1f78b4" points="742.65,-44.81 740.2,-37.81 737.75,-44.81 742.65,-44.81"/>
<text xml:space="preserve" text-anchor="middle" x="492.67" y="-74.15" font-family="Helvetica,sans-Serif" font-size="8.00" fill="#1f78b4">REQUIRES</text>
</g>
<!-- resource_lagrange_video -->
<g id="node27" class="node">
<title>resource_lagrange_video</title>
<path fill="#8ab17d" stroke="#6b9460" d="M336.6,-36C336.6,-36 180.75,-36 180.75,-36 174.75,-36 168.75,-30 168.75,-24 168.75,-24 168.75,-12 168.75,-12 168.75,-6 174.75,0 180.75,0 180.75,0 336.6,0 336.6,0 342.6,0 348.6,-6 348.6,-12 348.6,-12 348.6,-24 348.6,-24 348.6,-30 342.6,-36 336.6,-36"/>
<text xml:space="preserve" text-anchor="middle" x="258.67" y="-14.5" font-family="Helvetica,sans-Serif" font-size="10.00">Lagrange Interpolation Video Tutorial</text>
</g>
<!-- concept_lagrange&#45;&gt;resource_lagrange_video -->
<g id="edge40" class="edge">
<title>concept_lagrange&#45;&gt;resource_lagrange_video</title>
<path fill="none" stroke="#008856" stroke-dasharray="1,5" d="M300.24,-117.35C300.24,-117.35 300.24,-44.78 300.24,-44.78"/>
<polygon fill="#008856" stroke="#008856" points="302.69,-44.78 300.24,-37.78 297.79,-44.78 302.69,-44.78"/>
<text xml:space="preserve" text-anchor="middle" x="292.05" y="-74.15" font-family="Helvetica,sans-Serif" font-size="8.00" fill="#008856">REMEDIATES_TO</text>
</g>
<!-- concept_least_squares&#45;&gt;concept_polynomial_basics -->
<g id="edge23" class="edge">
<title>concept_least_squares&#45;&gt;concept_polynomial_basics</title>
<path fill="none" stroke="#1f78b4" stroke-dasharray="5,2" d="M1326.99,-117.48C1326.99,-100.24 1326.99,-77 1326.99,-77 1326.99,-77 800.78,-77 800.78,-77 800.78,-77 800.78,-44.86 800.78,-44.86"/>
<polygon fill="#1f78b4" stroke="#1f78b4" points="803.23,-44.86 800.78,-37.86 798.33,-44.86 803.23,-44.86"/>
<text xml:space="preserve" text-anchor="middle" x="1110.67" y="-74.15" font-family="Helvetica,sans-Serif" font-size="8.00" fill="#1f78b4">REQUIRES</text>
</g>
<!-- concept_minimax_approximation&#45;&gt;concept_orthogonal_polynomials -->
<g id="edge36" class="edge">
<title>concept_minimax_approximation&#45;&gt;concept_orthogonal_polynomials</title>
<path fill="none" stroke="#1f78b4" stroke-dasharray="5,2" d="M1796.92,-379.26C1796.92,-379.26 1796.92,-280.1 1796.92,-280.1"/>
<polygon fill="#1f78b4" stroke="#1f78b4" points="1799.38,-280.1 1796.93,-273.1 1794.48,-280.1 1799.38,-280.1"/>
<text xml:space="preserve" text-anchor="middle" x="1801.67" y="-322.77" font-family="Helvetica,sans-Serif" font-size="8.00" fill="#1f78b4">REQUIRES</text>
</g>
<!-- concept_newton_interpolation&#45;&gt;concept_divided_differences -->
<g id="edge28" class="edge">
<title>concept_newton_interpolation&#45;&gt;concept_divided_differences</title>
<path fill="none" stroke="#1f78b4" stroke-dasharray="5,2" d="M522.74,-389C539.21,-389 552.9,-389 552.9,-389 552.9,-389 552.9,-280.29 552.9,-280.29"/>
<polygon fill="#1f78b4" stroke="#1f78b4" points="555.35,-280.29 552.9,-273.29 550.45,-280.29 555.35,-280.29"/>
<text xml:space="preserve" text-anchor="middle" x="539.67" y="-322.77" font-family="Helvetica,sans-Serif" font-size="8.00" fill="#1f78b4">REQUIRES</text>
</g>
<!-- concept_newton_interpolation&#45;&gt;concept_polynomial_basics -->
<g id="edge24" class="edge">
<title>concept_newton_interpolation&#45;&gt;concept_polynomial_basics</title>
<path fill="none" stroke="#1f78b4" stroke-dasharray="5,2" d="M522.8,-407C580.38,-407 661.61,-407 661.61,-407 661.61,-407 661.61,-12 661.61,-12 661.61,-12 709.66,-12 709.66,-12"/>
<polygon fill="#1f78b4" stroke="#1f78b4" points="709.66,-14.45 716.66,-12 709.66,-9.55 709.66,-14.45"/>
<text xml:space="preserve" text-anchor="middle" x="547.67" y="-191.9" font-family="Helvetica,sans-Serif" font-size="8.00" fill="#1f78b4">REQUIRES</text>
</g>
<!-- resource_newton_exercise -->
<g id="node28" class="node">
<title>resource_newton_exercise</title>
<path fill="#8ab17d" stroke="#6b9460" d="M560.1,-36C560.1,-36 389.25,-36 389.25,-36 383.25,-36 377.25,-30 377.25,-24 377.25,-24 377.25,-12 377.25,-12 377.25,-6 383.25,0 389.25,0 389.25,0 560.1,0 560.1,0 566.1,0 572.1,-6 572.1,-12 572.1,-12 572.1,-24 572.1,-24 572.1,-30 566.1,-36 560.1,-36"/>
<text xml:space="preserve" text-anchor="middle" x="474.67" y="-14.5" font-family="Helvetica,sans-Serif" font-size="10.00">Newton Interpolation Practice Problems</text>
</g>
<!-- concept_newton_interpolation&#45;&gt;resource_newton_exercise -->
<g id="edge41" class="edge">
<title>concept_newton_interpolation&#45;&gt;resource_newton_exercise</title>
<path fill="none" stroke="#008856" stroke-dasharray="1,5" d="M466.67,-379.2C466.67,-379.2 466.67,-44.63 466.67,-44.63"/>
<polygon fill="#008856" stroke="#008856" points="469.13,-44.63 466.68,-37.63 464.23,-44.63 469.13,-44.63"/>
<text xml:space="preserve" text-anchor="middle" x="456.05" y="-191.9" font-family="Helvetica,sans-Serif" font-size="8.00" fill="#008856">REMEDIATES_TO</text>
</g>
<!-- concept_newton_optimization&#45;&gt;concept_gradient_descent -->
<g id="edge37" class="edge">
<title>concept_newton_optimization&#45;&gt;concept_gradient_descent</title>
<path fill="none" stroke="#1f78b4" stroke-dasharray="5,2" d="M1492.67,-379.26C1492.67,-379.26 1492.67,-280.1 1492.67,-280.1"/>
<polygon fill="#1f78b4" stroke="#1f78b4" points="1495.13,-280.1 1492.68,-273.1 1490.23,-280.1 1495.13,-280.1"/>
<text xml:space="preserve" text-anchor="middle" x="1531.67" y="-322.77" font-family="Helvetica,sans-Serif" font-size="8.00" fill="#1f78b4">REQUIRES</text>
</g>
<!-- resource_newton_optim_exercise -->
<g id="node29" class="node">
<title>resource_newton_optim_exercise</title>
<path fill="#8ab17d" stroke="#6b9460" d="M1764.85,-36C1764.85,-36 1580.5,-36 1580.5,-36 1574.5,-36 1568.5,-30 1568.5,-24 1568.5,-24 1568.5,-12 1568.5,-12 1568.5,-6 1574.5,0 1580.5,0 1580.5,0 1764.85,0 1764.85,0 1770.85,0 1776.85,-6 1776.85,-12 1776.85,-12 1776.85,-24 1776.85,-24 1776.85,-30 1770.85,-36 1764.85,-36"/>
<text xml:space="preserve" text-anchor="middle" x="1672.67" y="-14.5" font-family="Helvetica,sans-Serif" font-size="10.00">Newton&#39;s Method (Optimization) Exercises</text>
</g>
<!-- concept_newton_optimization&#45;&gt;resource_newton_optim_exercise -->
<g id="edge47" class="edge">
<title>concept_newton_optimization&#45;&gt;resource_newton_optim_exercise</title>
<path fill="none" stroke="#008856" stroke-dasharray="1,5" d="M1604.11,-379.2C1604.11,-379.2 1604.11,-44.63 1604.11,-44.63"/>
<polygon fill="#008856" stroke="#008856" points="1606.56,-44.63 1604.11,-37.63 1601.66,-44.63 1606.56,-44.63"/>
<text xml:space="preserve" text-anchor="middle" x="1706.05" y="-191.9" font-family="Helvetica,sans-Serif" font-size="8.00" fill="#008856">REMEDIATES_TO</text>
</g>
<!-- concept_newton_raphson&#45;&gt;concept_bissection -->
<g id="edge38" class="edge">
<title>concept_newton_raphson&#45;&gt;concept_bissection</title>
<path fill="none" stroke="#1f78b4" stroke-dasharray="5,2" d="M945.49,-235.1C945.49,-235.1 945.49,-162.53 945.49,-162.53"/>
<polygon fill="#1f78b4" stroke="#1f78b4" points="947.94,-162.53 945.49,-155.53 943.04,-162.53 947.94,-162.53"/>
<text xml:space="preserve" text-anchor="middle" x="953.67" y="-191.9" font-family="Helvetica,sans-Serif" font-size="8.00" fill="#1f78b4">REQUIRES</text>
</g>
<!-- concept_newton_raphson&#45;&gt;concept_polynomial_basics -->
<g id="edge20" class="edge">
<title>concept_newton_raphson&#45;&gt;concept_polynomial_basics</title>
<path fill="none" stroke="#1f78b4" stroke-dasharray="5,2" d="M855.88,-235.02C855.88,-179.5 855.88,-18 855.88,-18 855.88,-18 829.82,-18 829.82,-18"/>
<polygon fill="#1f78b4" stroke="#1f78b4" points="829.82,-15.55 822.82,-18 829.82,-20.45 829.82,-15.55"/>
<text xml:space="preserve" text-anchor="middle" x="863.67" y="-133.03" font-family="Helvetica,sans-Serif" font-size="8.00" fill="#1f78b4">REQUIRES</text>
</g>
<!-- resource_newton_raphson_video -->
<g id="node30" class="node">
<title>resource_newton_raphson_video</title>
<path fill="#8ab17d" stroke="#6b9460" d="M1248.35,-36C1248.35,-36 1091,-36 1091,-36 1085,-36 1079,-30 1079,-24 1079,-24 1079,-12 1079,-12 1079,-6 1085,0 1091,0 1091,0 1248.35,0 1248.35,0 1254.35,0 1260.35,-6 1260.35,-12 1260.35,-12 1260.35,-24 1260.35,-24 1260.35,-30 1254.35,-36 1248.35,-36"/>
<text xml:space="preserve" text-anchor="middle" x="1169.67" y="-14.5" font-family="Helvetica,sans-Serif" font-size="10.00">Newton&#45;Raphson Visual Explanation</text>
</g>
<!-- concept_newton_raphson&#45;&gt;resource_newton_raphson_video -->
<g id="edge48" class="edge">
<title>concept_newton_raphson&#45;&gt;resource_newton_raphson_video</title>
<path fill="none" stroke="#008856" stroke-dasharray="1,5" d="M975.39,-254C1052.54,-254 1169.06,-254 1169.06,-254 1169.06,-254 1169.06,-44.64 1169.06,-44.64"/>
<polygon fill="#008856" stroke="#008856" points="1171.51,-44.64 1169.06,-37.64 1166.61,-44.64 1171.51,-44.64"/>
<text xml:space="preserve" text-anchor="middle" x="1197.05" y="-133.03" font-family="Helvetica,sans-Serif" font-size="8.00" fill="#008856">REMEDIATES_TO</text>
</g>
<!-- concept_orthogonal_polynomials&#45;&gt;concept_definite_integrals -->
<g id="edge30" class="edge">
<title>concept_orthogonal_polynomials&#45;&gt;concept_definite_integrals</title>
<path fill="none" stroke="#1f78b4" stroke-dasharray="5,2" d="M1891.91,-235.02C1891.91,-235.02 1891.91,-44.91 1891.91,-44.91"/>
<polygon fill="#1f78b4" stroke="#1f78b4" points="1894.36,-44.91 1891.91,-37.91 1889.46,-44.91 1894.36,-44.91"/>
<text xml:space="preserve" text-anchor="middle" x="1882.67" y="-133.03" font-family="Helvetica,sans-Serif" font-size="8.00" fill="#1f78b4">REQUIRES</text>
</g>
<!-- concept_orthogonal_polynomials&#45;&gt;concept_least_squares -->
<g id="edge35" class="edge">
<title>concept_orthogonal_polynomials&#45;&gt;concept_least_squares</title>
<path fill="none" stroke="#1f78b4" stroke-dasharray="5,2" d="M1832.8,-235.43C1832.8,-205.05 1832.8,-147 1832.8,-147 1832.8,-147 1417.18,-147 1417.18,-147"/>
<polygon fill="#1f78b4" stroke="#1f78b4" points="1417.18,-144.55 1410.18,-147 1417.18,-149.45 1417.18,-144.55"/>
<text xml:space="preserve" text-anchor="middle" x="1811.67" y="-191.9" font-family="Helvetica,sans-Serif" font-size="8.00" fill="#1f78b4">REQUIRES</text>
</g>
<!-- concept_orthogonal_polynomials&#45;&gt;concept_trapezoidal -->
<g id="edge32" class="edge">
<title>concept_orthogonal_polynomials&#45;&gt;concept_trapezoidal</title>
<path fill="none" stroke="#1f78b4" stroke-dasharray="5,2" d="M1895.07,-235.1C1895.07,-202.74 1895.07,-139 1895.07,-139 1895.07,-139 2120.39,-139 2120.39,-139"/>
<polygon fill="#1f78b4" stroke="#1f78b4" points="2120.39,-141.45 2127.39,-139 2120.39,-136.55 2120.39,-141.45"/>
<text xml:space="preserve" text-anchor="middle" x="2026.67" y="-191.9" font-family="Helvetica,sans-Serif" font-size="8.00" fill="#1f78b4">REQUIRES</text>
</g>
<!-- concept_secant&#45;&gt;concept_divided_differences -->
<g id="edge27" class="edge">
<title>concept_secant&#45;&gt;concept_divided_differences</title>
<path fill="none" stroke="#1f78b4" stroke-dasharray="5,2" d="M735.51,-398C684.19,-398 606.45,-398 606.45,-398 606.45,-398 606.45,-280.31 606.45,-280.31"/>
<polygon fill="#1f78b4" stroke="#1f78b4" points="608.9,-280.31 606.45,-273.31 604,-280.31 608.9,-280.31"/>
<text xml:space="preserve" text-anchor="middle" x="650.67" y="-322.77" font-family="Helvetica,sans-Serif" font-size="8.00" fill="#1f78b4">REQUIRES</text>
</g>
<!-- concept_secant&#45;&gt;concept_newton_raphson -->
<g id="edge39" class="edge">
<title>concept_secant&#45;&gt;concept_newton_raphson</title>
<path fill="none" stroke="#1f78b4" stroke-dasharray="5,2" d="M823.77,-392C853.22,-392 886.57,-392 886.57,-392 886.57,-392 886.57,-280.41 886.57,-280.41"/>
<polygon fill="#1f78b4" stroke="#1f78b4" points="889.03,-280.41 886.58,-273.41 884.13,-280.41 889.03,-280.41"/>
<text xml:space="preserve" text-anchor="middle" x="894.67" y="-322.77" font-family="Helvetica,sans-Serif" font-size="8.00" fill="#1f78b4">REQUIRES</text>
</g>
<!-- concept_simpson&#45;&gt;concept_trapezoidal -->
<g id="edge33" class="edge">
<title>concept_simpson&#45;&gt;concept_trapezoidal</title>
<path fill="none" stroke="#1f78b4" stroke-dasharray="5,2" d="M2190.3,-235.1C2190.3,-235.1 2190.3,-162.53 2190.3,-162.53"/>
<polygon fill="#1f78b4" stroke="#1f78b4" points="2192.75,-162.53 2190.3,-155.53 2187.85,-162.53 2192.75,-162.53"/>
<text xml:space="preserve" text-anchor="middle" x="2209.68" y="-191.9" font-family="Helvetica,sans-Serif" font-size="8.00" fill="#1f78b4">REQUIRES</text>
</g>
<!-- resource_simpson_exercise -->
<g id="node31" class="node">
<title>resource_simpson_exercise</title>
<path fill="#8ab17d" stroke="#6b9460" d="M2408.23,-36C2408.23,-36 2295.12,-36 2295.12,-36 2289.12,-36 2283.12,-30 2283.12,-24 2283.12,-24 2283.12,-12 2283.12,-12 2283.12,-6 2289.12,0 2295.12,0 2295.12,0 2408.23,0 2408.23,0 2414.23,0 2420.23,-6 2420.23,-12 2420.23,-12 2420.23,-24 2420.23,-24 2420.23,-30 2414.23,-36 2408.23,-36"/>
<text xml:space="preserve" text-anchor="middle" x="2351.68" y="-14.5" font-family="Helvetica,sans-Serif" font-size="10.00">Simpson&#39;s Rule Exercises</text>
</g>
<!-- concept_simpson&#45;&gt;resource_simpson_exercise -->
<g id="edge44" class="edge">
<title>concept_simpson&#45;&gt;resource_simpson_exercise</title>
<path fill="none" stroke="#008856" stroke-dasharray="1,5" d="M2247.26,-254C2273.12,-254 2300.36,-254 2300.36,-254 2300.36,-254 2300.36,-44.64 2300.36,-44.64"/>
<polygon fill="#008856" stroke="#008856" points="2302.81,-44.64 2300.36,-37.64 2297.91,-44.64 2302.81,-44.64"/>
<text xml:space="preserve" text-anchor="middle" x="2360.05" y="-133.03" font-family="Helvetica,sans-Serif" font-size="8.00" fill="#008856">REMEDIATES_TO</text>
</g>
<!-- concept_spline_interpolation&#45;&gt;concept_lagrange -->
<g id="edge26" class="edge">
<title>concept_spline_interpolation&#45;&gt;concept_lagrange</title>
<path fill="none" stroke="#1f78b4" stroke-dasharray="5,2" d="M285.99,-235.1C285.99,-235.1 285.99,-162.53 285.99,-162.53"/>
<polygon fill="#1f78b4" stroke="#1f78b4" points="288.44,-162.53 285.99,-155.53 283.54,-162.53 288.44,-162.53"/>
<text xml:space="preserve" text-anchor="middle" x="305.67" y="-191.9" font-family="Helvetica,sans-Serif" font-size="8.00" fill="#1f78b4">REQUIRES</text>
</g>
<!-- resource_spline_tutorial -->
<g id="node32" class="node">
<title>resource_spline_tutorial</title>
<path fill="#8ab17d" stroke="#6b9460" d="M127.35,-36C127.35,-36 12,-36 12,-36 6,-36 0,-30 0,-24 0,-24 0,-12 0,-12 0,-6 6,0 12,0 12,0 127.35,0 127.35,0 133.35,0 139.35,-6 139.35,-12 139.35,-12 139.35,-24 139.35,-24 139.35,-30 133.35,-36 127.35,-36"/>
<text xml:space="preserve" text-anchor="middle" x="69.67" y="-14.5" font-family="Helvetica,sans-Serif" font-size="10.00">Spline Interpolation Tutorial</text>
</g>
<!-- concept_spline_interpolation&#45;&gt;resource_spline_tutorial -->
<g id="edge42" class="edge">
<title>concept_spline_interpolation&#45;&gt;resource_spline_tutorial</title>
<path fill="none" stroke="#008856" stroke-dasharray="1,5" d="M214.87,-254C156.22,-254 69.67,-254 69.67,-254 69.67,-254 69.67,-44.64 69.67,-44.64"/>
<polygon fill="#008856" stroke="#008856" points="72.13,-44.64 69.68,-37.64 67.23,-44.64 72.13,-44.64"/>
<text xml:space="preserve" text-anchor="middle" x="103.05" y="-133.03" font-family="Helvetica,sans-Serif" font-size="8.00" fill="#008856">REMEDIATES_TO</text>
</g>
<!-- concept_trapezoidal&#45;&gt;concept_definite_integrals -->
<g id="edge31" class="edge">
<title>concept_trapezoidal&#45;&gt;concept_definite_integrals</title>
<path fill="none" stroke="#1f78b4" stroke-dasharray="5,2" d="M2128.75,-132C2063.79,-132 1955.81,-132 1955.81,-132 1955.81,-132 1955.81,-44.83 1955.81,-44.83"/>
<polygon fill="#1f78b4" stroke="#1f78b4" points="1958.26,-44.83 1955.81,-37.83 1953.36,-44.83 1958.26,-44.83"/>
<text xml:space="preserve" text-anchor="middle" x="2026.67" y="-74.15" font-family="Helvetica,sans-Serif" font-size="8.00" fill="#1f78b4">REQUIRES</text>
</g>
<!-- concept_trapezoidal&#45;&gt;concept_riemann_sums -->
<g id="edge29" class="edge">
<title>concept_trapezoidal&#45;&gt;concept_riemann_sums</title>
<path fill="none" stroke="#1f78b4" stroke-dasharray="5,2" d="M2128.78,-125C2111.39,-125 2095.94,-125 2095.94,-125 2095.94,-125 2095.94,-44.66 2095.94,-44.66"/>
<polygon fill="#1f78b4" stroke="#1f78b4" points="2098.39,-44.66 2095.94,-37.66 2093.49,-44.66 2098.39,-44.66"/>
<text xml:space="preserve" text-anchor="middle" x="2137.68" y="-74.15" font-family="Helvetica,sans-Serif" font-size="8.00" fill="#1f78b4">REQUIRES</text>
</g>
<!-- resource_trapezoidal_video -->
<g id="node33" class="node">
<title>resource_trapezoidal_video</title>
<path fill="#8ab17d" stroke="#6b9460" d="M2242.1,-36C2242.1,-36 2143.25,-36 2143.25,-36 2137.25,-36 2131.25,-30 2131.25,-24 2131.25,-24 2131.25,-12 2131.25,-12 2131.25,-6 2137.25,0 2143.25,0 2143.25,0 2242.1,0 2242.1,0 2248.1,0 2254.1,-6 2254.1,-12 2254.1,-12 2254.1,-24 2254.1,-24 2254.1,-30 2248.1,-36 2242.1,-36"/>
<text xml:space="preserve" text-anchor="middle" x="2192.68" y="-14.5" font-family="Helvetica,sans-Serif" font-size="10.00">Trapezoidal Rule Video</text>
</g>
<!-- concept_trapezoidal&#45;&gt;resource_trapezoidal_video -->
<g id="edge43" class="edge">
<title>concept_trapezoidal&#45;&gt;resource_trapezoidal_video</title>
<path fill="none" stroke="#008856" stroke-dasharray="1,5" d="M2177.74,-117.35C2177.74,-117.35 2177.74,-44.78 2177.74,-44.78"/>
<polygon fill="#008856" stroke="#008856" points="2180.19,-44.78 2177.74,-37.78 2175.29,-44.78 2180.19,-44.78"/>
<text xml:space="preserve" text-anchor="middle" x="2226.05" y="-74.15" font-family="Helvetica,sans-Serif" font-size="8.00" fill="#008856">REMEDIATES_TO</text>
</g>
</g>
</svg>
