<?xml version="1.0" encoding="UTF-8" standalone="no"?>
<!DOCTYPE svg PUBLIC "-//W3C//DTD SVG 1.1//EN"
 "http://www.w3.org/Graphics/SVG/1.1/DTD/svg11.dtd">
<!-- Generated by graphviz version 14.1.5 (20260411.2331)
 -->
<!-- Title: NumericalAnalysisKG Pages: 1 -->
<svg width="8633pt" height="2146pt"
 viewBox="0.00 0.00 8633.00 2146.00" xmlns="http://www.w3.org/2000/svg" xmlns:xlink="http://www.w3.org/1999/xlink">
<g id="graph0" class="graph" transform="scale(4.16667 4.16667) rotate(0) translate(4 511)">
<title>NumericalAnalysisKG</title>
<polygon fill="white" stroke="none" points="-4,4 -4,-511 2067.85,-511 2067.85,4 -4,4"/>
<!-- module_approximation -->
<g id="node1" class="node">
<title>module_approximation</title>
<path fill="#f4a261" stroke="#d88c3f" d="M529.98,-507C529.98,-507 352.38,-507 352.38,-507 346.38,-507 340.38,-501 340.38,-495 340.38,-495 340.38,-483 340.38,-483 340.38,-477 346.38,-471 352.38,-471 352.38,-471 529.98,-471 529.98,-471 535.98,-471 541.98,-477 541.98,-483 541.98,-483 541.98,-495 541.98,-495 541.98,-501 535.98,-507 529.98,-507"/>
<text xml:space="preserve" text-anchor="middle" x="441.18" y="-485.5" font-family="Helvetica,sans-Serif" font-size="10.00">Polynomial Approximation &amp; Optimization</text>
</g>
<!-- concept_gradient_descent -->
<g id="node7" class="node">
<title>concept_gradient_descent</title>
<path fill="#e9c46a" stroke="#c9a945" d="M335.23,-271.5C335.23,-271.5 261.12,-271.5 261.12,-271.5 255.12,-271.5 249.12,-265.5 249.12,-259.5 249.12,-259.5 249.12,-247.5 249.12,-247.5 249.12,-241.5 255.12,-235.5 261.12,-235.5 261.12,-235.5 335.23,-235.5 335.23,-235.5 341.23,-235.5 347.23,-241.5 347.23,-247.5 347.23,-247.5 347.23,-259.5 347.23,-259.5 347.23,-265.5 341.23,-271.5 335.23,-271.5"/>
<text xml:space="preserve" text-anchor="middle" x="298.18" y="-250" font-family="Helvetica,sans-Serif" font-size="10.00">Gradient Descent</text>
</g>
<!-- module_approximation&#45;&gt;concept_gradient_descent -->
<g id="edge12" class="edge">
<title>module_approximation&#45;&gt;concept_gradient_descent</title>
<path fill="none" stroke="#5a5a5a" d="M417.43,-470.56C417.43,-415.16 417.43,-254 417.43,-254 417.43,-254 356.23,-254 356.23,-254"/>
<polygon fill="#5a5a5a" stroke="#5a5a5a" points="356.23,-251.55 349.23,-254 356.23,-256.45 356.23,-251.55"/>
<text xml:space="preserve" text-anchor="middle" x="167.05" y="-368.52" font-family="Helvetica,sans-Serif" font-size="8.00">COVERS</text>
</g>
<!-- concept_least_squares -->
<g id="node9" class="node">
<title>concept_least_squares</title>
<path fill="#e9c46a" stroke="#c9a945" d="M588.72,-271.5C588.72,-271.5 463.62,-271.5 463.62,-271.5 457.62,-271.5 451.62,-265.5 451.62,-259.5 451.62,-259.5 451.62,-247.5 451.62,-247.5 451.62,-241.5 457.62,-235.5 463.62,-235.5 463.62,-235.5 588.72,-235.5 588.72,-235.5 594.72,-235.5 600.72,-241.5 600.72,-247.5 600.72,-247.5 600.72,-259.5 600.72,-259.5 600.72,-265.5 594.72,-271.5 588.72,-271.5"/>
<text xml:space="preserve" text-anchor="middle" x="526.17" y="-250" font-family="Helvetica,sans-Serif" font-size="10.00">Least Squares Approximation</text>
</g>
<!-- module_approximation&#45;&gt;concept_least_squares -->
<g id="edge15" class="edge">
<title>module_approximation&#45;&gt;concept_least_squares</title>
<path fill="none" stroke="#5a5a5a" d="M477.88,-470.52C477.88,-470.52 477.88,-280.41 477.88,-280.41"/>
<polygon fill="#5a5a5a" stroke="#5a5a5a" points="480.33,-280.41 477.88,-273.41 475.43,-280.41 480.33,-280.41"/>
<text xml:space="preserve" text-anchor="middle" x="458.05" y="-368.52" font-family="Helvetica,sans-Serif" font-size="8.00">COVERS</text>
</g>
<!-- concept_minimax_approximation -->
<g id="node10" class="node">
<title>concept_minimax_approximation</title>
<path fill="#e9c46a" stroke="#c9a945" d="M644.22,-389.25C644.22,-389.25 516.12,-389.25 516.12,-389.25 510.12,-389.25 504.12,-383.25 504.12,-377.25 504.12,-377.25 504.12,-365.25 504.12,-365.25 504.12,-359.25 510.12,-353.25 516.12,-353.25 516.12,-353.25 644.22,-353.25 644.22,-353.25 650.22,-353.25 656.22,-359.25 656.22,-365.25 656.22,-365.25 656.22,-377.25 656.22,-377.25 656.22,-383.25 650.22,-389.25 644.22,-389.25"/>
<text xml:space="preserve" text-anchor="middle" x="580.17" y="-367.75" font-family="Helvetica,sans-Serif" font-size="10.00">Best (Minimax) Approximation</text>
</g>
<!-- module_approximation&#45;&gt;concept_minimax_approximation -->
<g id="edge13" class="edge">
<title>module_approximation&#45;&gt;concept_minimax_approximation</title>
<path fill="none" stroke="#5a5a5a" d="M523.05,-470.6C523.05,-470.6 523.05,-398.03 523.05,-398.03"/>
<polygon fill="#5a5a5a" stroke="#5a5a5a" points="525.5,-398.03 523.05,-391.03 520.6,-398.03 525.5,-398.03"/>
<text xml:space="preserve" text-anchor="middle" x="552.05" y="-427.4" font-family="Helvetica,sans-Serif" font-size="8.00">COVERS</text>
</g>
<!-- concept_newton_optimization -->
<g id="node12" class="node">
<title>concept_newton_optimization</title>
<path fill="#e9c46a" stroke="#c9a945" d="M371.23,-389.25C371.23,-389.25 225.12,-389.25 225.12,-389.25 219.12,-389.25 213.12,-383.25 213.12,-377.25 213.12,-377.25 213.12,-365.25 213.12,-365.25 213.12,-359.25 219.12,-353.25 225.12,-353.25 225.12,-353.25 371.23,-353.25 371.23,-353.25 377.23,-353.25 383.23,-359.25 383.23,-365.25 383.23,-365.25 383.23,-377.25 383.23,-377.25 383.23,-383.25 377.23,-389.25 371.23,-389.25"/>
<text xml:space="preserve" text-anchor="middle" x="298.18" y="-367.75" font-family="Helvetica,sans-Serif" font-size="10.00">Newton&#39;s Method for Optimization</text>
</g>
<!-- module_approximation&#45;&gt;concept_newton_optimization -->
<g id="edge11" class="edge">
<title>module_approximation&#45;&gt;concept_newton_optimization</title>
<path fill="none" stroke="#5a5a5a" d="M361.8,-470.6C361.8,-470.6 361.8,-398.03 361.8,-398.03"/>
<polygon fill="#5a5a5a" stroke="#5a5a5a" points="364.25,-398.03 361.8,-391.03 359.35,-398.03 364.25,-398.03"/>
<text xml:space="preserve" text-anchor="middle" x="360.05" y="-427.4" font-family="Helvetica,sans-Serif" font-size="8.00">COVERS</text>
</g>
<!-- concept_orthogonal_polynomials -->
<g id="node13" class="node">
<title>concept_orthogonal_polynomials</title>
<path fill="#e9c46a" stroke="#c9a945" d="M742.72,-271.5C742.72,-271.5 641.62,-271.5 641.62,-271.5 635.62,-271.5 629.62,-265.5 629.62,-259.5 629.62,-259.5 629.62,-247.5 629.62,-247.5 629.62,-241.5 635.62,-235.5 641.62,-235.5 641.62,-235.5 742.72,-235.5 742.72,-235.5 748.72,-235.5 754.72,-241.5 754.72,-247.5 754.72,-247.5 754.72,-259.5 754.72,-259.5 754.72,-265.5 748.72,-271.5 742.72,-271.5"/>
<text xml:space="preserve" text-anchor="middle" x="692.17" y="-250" font-family="Helvetica,sans-Serif" font-size="10.00">Orthogonal Polynomials</text>
</g>
<!-- module_approximation&#45;&gt;concept_orthogonal_polynomials -->
<g id="edge14" class="edge">
<title>module_approximation&#45;&gt;concept_orthogonal_polynomials</title>
<path fill="none" stroke="#5a5a5a" d="M542.23,-489C616.84,-489 705.48,-489 705.48,-489 705.48,-489 705.48,-280.49 705.48,-280.49"/>
<polygon fill="#5a5a5a" stroke="#5a5a5a" points="707.93,-280.49 705.48,-273.49 703.03,-280.49 707.93,-280.49"/>
<text xml:space="preserve" text-anchor="middle" x="731.05" y="-368.52" font-family="Helvetica,sans-Serif" font-size="8.00">COVERS</text>
</g>
<!-- module_integration -->
<g id="node2" class="node">
<title>module_integration</title>
<path fill="#f4a261" stroke="#d88c3f" d="M1682.47,-507C1682.47,-507 1591.88,-507 1591.88,-507 1585.88,-507 1579.88,-501 1579.88,-495 1579.88,-495 1579.88,-483 1579.88,-483 1579.88,-477 1585.88,-471 1591.88,-471 1591.88,-471 1682.47,-471 1682.47,-471 1688.47,-471 1694.47,-477 1694.47,-483 1694.47,-483 1694.47,-495 1694.47,-495 1694.47,-501 1688.47,-507 1682.47,-507"/>
<text xml:space="preserve" text-anchor="middle" x="1637.17" y="-485.5" font-family="Helvetica,sans-Serif" font-size="10.00">Numerical Integration</text>
</g>
<!-- concept_definite_integrals -->
<g id="node4" class="node">
<title>concept_definite_integrals</title>
<path fill="#e9c46a" stroke="#c9a945" d="M1424.1,-36C1424.1,-36 1352.25,-36 1352.25,-36 1346.25,-36 1340.25,-30 1340.25,-24 1340.25,-24 1340.25,-12 1340.25,-12 1340.25,-6 1346.25,0 1352.25,0 1352.25,0 1424.1,0 1424.1,0 1430.1,0 1436.1,-6 1436.1,-12 1436.1,-12 1436.1,-24 1436.1,-24 1436.1,-30 1430.1,-36 1424.1,-36"/>
<text xml:space="preserve" text-anchor="middle" x="1388.17" y="-14.5" font-family="Helvetica,sans-Serif" font-size="10.00">Definite Integrals</text>
</g>
<!-- module_integration&#45;&gt;concept_definite_integrals -->
<g id="edge9" class="edge">
<title>module_integration&#45;&gt;concept_definite_integrals</title>
<path fill="none" stroke="#5a5a5a" d="M1579.39,-498C1501.87,-498 1373.85,-498 1373.85,-498 1373.85,-498 1373.85,-44.74 1373.85,-44.74"/>
<polygon fill="#5a5a5a" stroke="#5a5a5a" points="1376.3,-44.74 1373.85,-37.74 1371.4,-44.74 1376.3,-44.74"/>
<text xml:space="preserve" text-anchor="middle" x="1418.05" y="-250.78" font-family="Helvetica,sans-Serif" font-size="8.00">COVERS</text>
</g>
<!-- concept_gaussian_quadrature -->
<g id="node6" class="node">
<title>concept_gaussian_quadrature</title>
<path fill="#e9c46a" stroke="#c9a945" d="M1894.1,-389.25C1894.1,-389.25 1804.25,-389.25 1804.25,-389.25 1798.25,-389.25 1792.25,-383.25 1792.25,-377.25 1792.25,-377.25 1792.25,-365.25 1792.25,-365.25 1792.25,-359.25 1798.25,-353.25 1804.25,-353.25 1804.25,-353.25 1894.1,-353.25 1894.1,-353.25 1900.1,-353.25 1906.1,-359.25 1906.1,-365.25 1906.1,-365.25 1906.1,-377.25 1906.1,-377.25 1906.1,-383.25 1900.1,-389.25 1894.1,-389.25"/>
<text xml:space="preserve" text-anchor="middle" x="1849.17" y="-367.75" font-family="Helvetica,sans-Serif" font-size="10.00">Gaussian Quadrature</text>
</g>
<!-- module_integration&#45;&gt;concept_gaussian_quadrature -->
<g id="edge6" class="edge">
<title>module_integration&#45;&gt;concept_gaussian_quadrature</title>
<path fill="none" stroke="#5a5a5a" d="M1690.47,-470.51C1690.47,-438.69 1690.47,-377 1690.47,-377 1690.47,-377 1783.37,-377 1783.37,-377"/>
<polygon fill="#5a5a5a" stroke="#5a5a5a" points="1783.37,-379.45 1790.37,-377 1783.37,-374.55 1783.37,-379.45"/>
<text xml:space="preserve" text-anchor="middle" x="1840.05" y="-427.4" font-family="Helvetica,sans-Serif" font-size="8.00">COVERS</text>
</g>
<!-- concept_riemann_sums -->
<g id="node15" class="node">
<title>concept_riemann_sums</title>
<path fill="#e9c46a" stroke="#c9a945" d="M1693.72,-36C1693.72,-36 1628.62,-36 1628.62,-36 1622.62,-36 1616.62,-30 1616.62,-24 1616.62,-24 1616.62,-12 1616.62,-12 1616.62,-6 1622.62,0 1628.62,0 1628.62,0 1693.72,0 1693.72,0 1699.72,0 1705.72,-6 1705.72,-12 1705.72,-12 1705.72,-24 1705.72,-24 1705.72,-30 1699.72,-36 1693.72,-36"/>
<text xml:space="preserve" text-anchor="middle" x="1661.17" y="-14.5" font-family="Helvetica,sans-Serif" font-size="10.00">Riemann Sums</text>
</g>
<!-- module_integration&#45;&gt;concept_riemann_sums -->
<g id="edge10" class="edge">
<title>module_integration&#45;&gt;concept_riemann_sums</title>
<path fill="none" stroke="#5a5a5a" d="M1686.47,-470.54C1686.47,-470.54 1686.47,-44.85 1686.47,-44.85"/>
<polygon fill="#5a5a5a" stroke="#5a5a5a" points="1688.93,-44.85 1686.48,-37.85 1684.03,-44.85 1688.93,-44.85"/>
<text xml:space="preserve" text-anchor="middle" x="1765.05" y="-250.78" font-family="Helvetica,sans-Serif" font-size="8.00">COVERS</text>
</g>
<!-- concept_simpson -->
<g id="node16" class="node">
<title>concept_simpson</title>
<path fill="#e9c46a" stroke="#c9a945" d="M1670.47,-271.5C1670.47,-271.5 1603.88,-271.5 1603.88,-271.5 1597.88,-271.5 1591.88,-265.5 1591.88,-259.5 1591.88,-259.5 1591.88,-247.5 1591.88,-247.5 1591.88,-241.5 1597.88,-235.5 1603.88,-235.5 1603.88,-235.5 1670.47,-235.5 1670.47,-235.5 1676.47,-235.5 1682.47,-241.5 1682.47,-247.5 1682.47,-247.5 1682.47,-259.5 1682.47,-259.5 1682.47,-265.5 1676.47,-271.5 1670.47,-271.5"/>
<text xml:space="preserve" text-anchor="middle" x="1637.17" y="-250" font-family="Helvetica,sans-Serif" font-size="10.00">Simpson&#39;s Rule</text>
</g>
<!-- module_integration&#45;&gt;concept_simpson -->
<g id="edge7" class="edge">
<title>module_integration&#45;&gt;concept_simpson</title>
<path fill="none" stroke="#5a5a5a" d="M1637.17,-470.52C1637.17,-470.52 1637.17,-280.41 1637.17,-280.41"/>
<polygon fill="#5a5a5a" stroke="#5a5a5a" points="1639.63,-280.41 1637.18,-273.41 1634.73,-280.41 1639.63,-280.41"/>
<text xml:space="preserve" text-anchor="middle" x="1654.05" y="-368.52" font-family="Helvetica,sans-Serif" font-size="8.00">COVERS</text>
</g>
<!-- concept_trapezoidal -->
<g id="node18" class="node">
<title>concept_trapezoidal</title>
<path fill="#e9c46a" stroke="#c9a945" d="M1561.72,-153.75C1561.72,-153.75 1490.62,-153.75 1490.62,-153.75 1484.62,-153.75 1478.62,-147.75 1478.62,-141.75 1478.62,-141.75 1478.62,-129.75 1478.62,-129.75 1478.62,-123.75 1484.62,-117.75 1490.62,-117.75 1490.62,-117.75 1561.72,-117.75 1561.72,-117.75 1567.72,-117.75 1573.72,-123.75 1573.72,-129.75 1573.72,-129.75 1573.72,-141.75 1573.72,-141.75 1573.72,-147.75 1567.72,-153.75 1561.72,-153.75"/>
<text xml:space="preserve" text-anchor="middle" x="1526.17" y="-132.25" font-family="Helvetica,sans-Serif" font-size="10.00">Trapezoidal Rule</text>
</g>
<!-- module_integration&#45;&gt;concept_trapezoidal -->
<g id="edge8" class="edge">
<title>module_integration&#45;&gt;concept_trapezoidal</title>
<path fill="none" stroke="#5a5a5a" d="M1583.74,-470.51C1583.74,-399.05 1583.74,-145 1583.74,-145 1583.74,-145 1582.49,-145 1582.49,-145"/>
<polygon fill="#5a5a5a" stroke="#5a5a5a" points="1582.49,-142.55 1575.49,-145 1582.49,-147.45 1582.49,-142.55"/>
<text xml:space="preserve" text-anchor="middle" x="1543.05" y="-309.65" font-family="Helvetica,sans-Serif" font-size="8.00">COVERS</text>
</g>
<!-- module_interpolation -->
<g id="node3" class="node">
<title>module_interpolation</title>
<path fill="#f4a261" stroke="#d88c3f" d="M1044.6,-507C1044.6,-507 993.75,-507 993.75,-507 987.75,-507 981.75,-501 981.75,-495 981.75,-495 981.75,-483 981.75,-483 981.75,-477 987.75,-471 993.75,-471 993.75,-471 1044.6,-471 1044.6,-471 1050.6,-471 1056.6,-477 1056.6,-483 1056.6,-483 1056.6,-495 1056.6,-495 1056.6,-501 1050.6,-507 1044.6,-507"/>
<text xml:space="preserve" text-anchor="middle" x="1019.17" y="-485.5" font-family="Helvetica,sans-Serif" font-size="10.00">Interpolation</text>
</g>
<!-- concept_divided_differences -->
<g id="node5" class="node">
<title>concept_divided_differences</title>
<path fill="#e9c46a" stroke="#c9a945" d="M1330.72,-271.5C1330.72,-271.5 1247.62,-271.5 1247.62,-271.5 1241.62,-271.5 1235.62,-265.5 1235.62,-259.5 1235.62,-259.5 1235.62,-247.5 1235.62,-247.5 1235.62,-241.5 1241.62,-235.5 1247.62,-235.5 1247.62,-235.5 1330.72,-235.5 1330.72,-235.5 1336.72,-235.5 1342.72,-241.5 1342.72,-247.5 1342.72,-247.5 1342.72,-259.5 1342.72,-259.5 1342.72,-265.5 1336.72,-271.5 1330.72,-271.5"/>
<text xml:space="preserve" text-anchor="middle" x="1289.17" y="-250" font-family="Helvetica,sans-Serif" font-size="10.00">Divided Differences</text>
</g>
<!-- module_interpolation&#45;&gt;concept_divided_differences -->
<g id="edge3" class="edge">
<title>module_interpolation&#45;&gt;concept_divided_differences</title>
<path fill="none" stroke="#5a5a5a" d="M1056.81,-489C1134.83,-489 1307.03,-489 1307.03,-489 1307.03,-489 1307.03,-280.49 1307.03,-280.49"/>
<polygon fill="#5a5a5a" stroke="#5a5a5a" points="1309.48,-280.49 1307.03,-273.49 1304.58,-280.49 1309.48,-280.49"/>
<text xml:space="preserve" text-anchor="middle" x="1319.05" y="-368.52" font-family="Helvetica,sans-Serif" font-size="8.00">COVERS</text>
</g>
<!-- concept_lagrange -->
<g id="node8" class="node">
<title>concept_lagrange</title>
<path fill="#e9c46a" stroke="#c9a945" d="M952.97,-271.5C952.97,-271.5 859.38,-271.5 859.38,-271.5 853.38,-271.5 847.38,-265.5 847.38,-259.5 847.38,-259.5 847.38,-247.5 847.38,-247.5 847.38,-241.5 853.38,-235.5 859.38,-235.5 859.38,-235.5 952.97,-235.5 952.97,-235.5 958.97,-235.5 964.97,-241.5 964.97,-247.5 964.97,-247.5 964.97,-259.5 964.97,-259.5 964.97,-265.5 958.97,-271.5 952.97,-271.5"/>
<text xml:space="preserve" text-anchor="middle" x="906.17" y="-250" font-family="Helvetica,sans-Serif" font-size="10.00">Lagrange Interpolation</text>
</g>
<!-- module_interpolation&#45;&gt;concept_lagrange -->
<g id="edge4" class="edge">
<title>module_interpolation&#45;&gt;concept_lagrange</title>
<path fill="none" stroke="#5a5a5a" d="M981.55,-480C948.68,-480 906.17,-480 906.17,-480 906.17,-480 906.17,-280.17 906.17,-280.17"/>
<polygon fill="#5a5a5a" stroke="#5a5a5a" points="908.63,-280.17 906.18,-273.17 903.73,-280.17 908.63,-280.17"/>
<text xml:space="preserve" text-anchor="middle" x="921.05" y="-368.52" font-family="Helvetica,sans-Serif" font-size="8.00">COVERS</text>
</g>
<!-- concept_newton_interpolation -->
<g id="node11" class="node">
<title>concept_newton_interpolation</title>
<path fill="#e9c46a" stroke="#c9a945" d="M1215.97,-389.25C1215.97,-389.25 1128.38,-389.25 1128.38,-389.25 1122.38,-389.25 1116.38,-383.25 1116.38,-377.25 1116.38,-377.25 1116.38,-365.25 1116.38,-365.25 1116.38,-359.25 1122.38,-353.25 1128.38,-353.25 1128.38,-353.25 1215.97,-353.25 1215.97,-353.25 1221.97,-353.25 1227.97,-359.25 1227.97,-365.25 1227.97,-365.25 1227.97,-377.25 1227.97,-377.25 1227.97,-383.25 1221.97,-389.25 1215.97,-389.25"/>
<text xml:space="preserve" text-anchor="middle" x="1172.17" y="-367.75" font-family="Helvetica,sans-Serif" font-size="10.00">Newton Interpolation</text>
</g>
<!-- module_interpolation&#45;&gt;concept_newton_interpolation -->
<g id="edge2" class="edge">
<title>module_interpolation&#45;&gt;concept_newton_interpolation</title>
<path fill="none" stroke="#5a5a5a" d="M1057,-480C1102.3,-480 1172.17,-480 1172.17,-480 1172.17,-480 1172.17,-398.21 1172.17,-398.21"/>
<polygon fill="#5a5a5a" stroke="#5a5a5a" points="1174.63,-398.21 1172.18,-391.21 1169.73,-398.21 1174.63,-398.21"/>
<text xml:space="preserve" text-anchor="middle" x="1139.05" y="-427.4" font-family="Helvetica,sans-Serif" font-size="8.00">COVERS</text>
</g>
<!-- concept_polynomial_basics -->
<g id="node14" class="node">
<title>concept_polynomial_basics</title>
<path fill="#e9c46a" stroke="#c9a945" d="M835.47,-153.75C835.47,-153.75 756.88,-153.75 756.88,-153.75 750.88,-153.75 744.88,-147.75 744.88,-141.75 744.88,-141.75 744.88,-129.75 744.88,-129.75 744.88,-123.75 750.88,-117.75 756.88,-117.75 756.88,-117.75 835.47,-117.75 835.47,-117.75 841.47,-117.75 847.47,-123.75 847.47,-129.75 847.47,-129.75 847.47,-141.75 847.47,-141.75 847.47,-147.75 841.47,-153.75 835.47,-153.75"/>
<text xml:space="preserve" text-anchor="middle" x="796.17" y="-132.25" font-family="Helvetica,sans-Serif" font-size="10.00">Polynomial Basics</text>
</g>
<!-- module_interpolation&#45;&gt;concept_polynomial_basics -->
<g id="edge5" class="edge">
<title>module_interpolation&#45;&gt;concept_polynomial_basics</title>
<path fill="none" stroke="#5a5a5a" d="M981.68,-498C919.31,-498 801.05,-498 801.05,-498 801.05,-498 801.05,-162.73 801.05,-162.73"/>
<polygon fill="#5a5a5a" stroke="#5a5a5a" points="803.5,-162.73 801.05,-155.73 798.6,-162.73 803.5,-162.73"/>
<text xml:space="preserve" text-anchor="middle" x="816.05" y="-309.65" font-family="Helvetica,sans-Serif" font-size="8.00">COVERS</text>
</g>
<!-- concept_spline_interpolation -->
<g id="node17" class="node">
<title>concept_spline_interpolation</title>
<path fill="#e9c46a" stroke="#c9a945" d="M1059.6,-389.25C1059.6,-389.25 978.75,-389.25 978.75,-389.25 972.75,-389.25 966.75,-383.25 966.75,-377.25 966.75,-377.25 966.75,-365.25 966.75,-365.25 966.75,-359.25 972.75,-353.25 978.75,-353.25 978.75,-353.25 1059.6,-353.25 1059.6,-353.25 1065.6,-353.25 1071.6,-359.25 1071.6,-365.25 1071.6,-365.25 1071.6,-377.25 1071.6,-377.25 1071.6,-383.25 1065.6,-389.25 1059.6,-389.25"/>
<text xml:space="preserve" text-anchor="middle" x="1019.17" y="-367.75" font-family="Helvetica,sans-Serif" font-size="10.00">Spline Interpolation</text>
</g>
<!-- module_interpolation&#45;&gt;concept_spline_interpolation -->
<g id="edge1" class="edge">
<title>module_interpolation&#45;&gt;concept_spline_interpolation</title>
<path fill="none" stroke="#5a5a5a" d="M1019.17,-470.6C1019.17,-470.6 1019.17,-398.03 1019.17,-398.03"/>
<polygon fill="#5a5a5a" stroke="#5a5a5a" points="1021.63,-398.03 1019.18,-391.03 1016.73,-398.03 1021.63,-398.03"/>
<text xml:space="preserve" text-anchor="middle" x="1036.05" y="-427.4" font-family="Helvetica,sans-Serif" font-size="8.00">COVERS</text>
</g>
<!-- concept_gaussian_quadrature&#45;&gt;concept_simpson -->
<g id="edge26" class="edge">
<title>concept_gaussian_quadrature&#45;&gt;concept_simpson</title>
<path fill="none" stroke="#1f78b4" stroke-dasharray="5,2" d="M1831.99,-352.88C1831.99,-321.28 1831.99,-260 1831.99,-260 1831.99,-260 1691.36,-260 1691.36,-260"/>
<polygon fill="#1f78b4" stroke="#1f78b4" points="1691.36,-257.55 1684.36,-260 1691.36,-262.45 1691.36,-257.55"/>
<text xml:space="preserve" text-anchor="middle" x="1707.17" y="-309.65" font-family="Helvetica,sans-Serif" font-size="8.00" fill="#1f78b4">REQUIRES</text>
</g>
<!-- resource_gaussian_tutorial -->
<g id="node19" class="node">
<title>resource_gaussian_tutorial</title>
<path fill="#8ab17d" stroke="#6b9460" d="M2051.85,-36C2051.85,-36 1912.5,-36 1912.5,-36 1906.5,-36 1900.5,-30 1900.5,-24 1900.5,-24 1900.5,-12 1900.5,-12 1900.5,-6 1906.5,0 1912.5,0 1912.5,0 2051.85,0 2051.85,0 2057.85,0 2063.85,-6 2063.85,-12 2063.85,-12 2063.85,-24 2063.85,-24 2063.85,-30 2057.85,-36 2051.85,-36"/>
<text xml:space="preserve" text-anchor="middle" x="1982.17" y="-14.5" font-family="Helvetica,sans-Serif" font-size="10.00">Gaussian Quadrature Deep Dive</text>
</g>
<!-- concept_gaussian_quadrature&#45;&gt;resource_gaussian_tutorial -->
<g id="edge35" class="edge">
<title>concept_gaussian_quadrature&#45;&gt;resource_gaussian_tutorial</title>
<path fill="none" stroke="#008856" stroke-dasharray="1,5" d="M1886.11,-352.76C1886.11,-280.07 1886.11,-18 1886.11,-18 1886.11,-18 1891.77,-18 1891.77,-18"/>
<polygon fill="#008856" stroke="#008856" points="1891.77,-20.45 1898.77,-18 1891.77,-15.55 1891.77,-20.45"/>
<text xml:space="preserve" text-anchor="middle" x="2015.55" y="-191.9" font-family="Helvetica,sans-Serif" font-size="8.00" fill="#008856">REMEDIATES_TO</text>
</g>
<!-- resource_gradient_video -->
<g id="node20" class="node">
<title>resource_gradient_video</title>
<path fill="#8ab17d" stroke="#6b9460" d="M371.23,-36C371.23,-36 249.12,-36 249.12,-36 243.12,-36 237.12,-30 237.12,-24 237.12,-24 237.12,-12 237.12,-12 237.12,-6 243.12,0 249.12,0 249.12,0 371.23,0 371.23,0 377.23,0 383.23,-6 383.23,-12 383.23,-12 383.23,-24 383.23,-24 383.23,-30 377.23,-36 371.23,-36"/>
<text xml:space="preserve" text-anchor="middle" x="310.18" y="-14.5" font-family="Helvetica,sans-Serif" font-size="10.00">Gradient Descent Visualized</text>
</g>
<!-- concept_gradient_descent&#45;&gt;resource_gradient_video -->
<g id="edge36" class="edge">
<title>concept_gradient_descent&#45;&gt;resource_gradient_video</title>
<path fill="none" stroke="#008856" stroke-dasharray="1,5" d="M298.18,-235.02C298.18,-235.02 298.18,-44.91 298.18,-44.91"/>
<polygon fill="#008856" stroke="#008856" points="300.63,-44.91 298.18,-37.91 295.73,-44.91 300.63,-44.91"/>
<text xml:space="preserve" text-anchor="middle" x="343.55" y="-133.03" font-family="Helvetica,sans-Serif" font-size="8.00" fill="#008856">REMEDIATES_TO</text>
</g>
<!-- concept_lagrange&#45;&gt;concept_polynomial_basics -->
<g id="edge19" class="edge">
<title>concept_lagrange&#45;&gt;concept_polynomial_basics</title>
<path fill="none" stroke="#1f78b4" stroke-dasharray="5,2" d="M871.35,-235.14C871.35,-202.09 871.35,-136 871.35,-136 871.35,-136 856.08,-136 856.08,-136"/>
<polygon fill="#1f78b4" stroke="#1f78b4" points="856.08,-133.55 849.08,-136 856.08,-138.45 856.08,-133.55"/>
<text xml:space="preserve" text-anchor="middle" x="866.17" y="-191.9" font-family="Helvetica,sans-Serif" font-size="8.00" fill="#1f78b4">REQUIRES</text>
</g>
<!-- resource_lagrange_video -->
<g id="node21" class="node">
<title>resource_lagrange_video</title>
<path fill="#8ab17d" stroke="#6b9460" d="M907.1,-36C907.1,-36 751.25,-36 751.25,-36 745.25,-36 739.25,-30 739.25,-24 739.25,-24 739.25,-12 739.25,-12 739.25,-6 745.25,0 751.25,0 751.25,0 907.1,0 907.1,0 913.1,0 919.1,-6 919.1,-12 919.1,-12 919.1,-24 919.1,-24 919.1,-30 913.1,-36 907.1,-36"/>
<text xml:space="preserve" text-anchor="middle" x="829.17" y="-14.5" font-family="Helvetica,sans-Serif" font-size="10.00">Lagrange Interpolation Video Tutorial</text>
</g>
<!-- concept_lagrange&#45;&gt;resource_lagrange_video -->
<g id="edge30" class="edge">
<title>concept_lagrange&#45;&gt;resource_lagrange_video</title>
<path fill="none" stroke="#008856" stroke-dasharray="1,5" d="M895.22,-235.02C895.22,-235.02 895.22,-44.91 895.22,-44.91"/>
<polygon fill="#008856" stroke="#008856" points="897.68,-44.91 895.23,-37.91 892.78,-44.91 897.68,-44.91"/>
<text xml:space="preserve" text-anchor="middle" x="940.55" y="-133.03" font-family="Helvetica,sans-Serif" font-size="8.00" fill="#008856">REMEDIATES_TO</text>
</g>
<!-- concept_least_squares&#45;&gt;concept_polynomial_basics -->
<g id="edge17" class="edge">
<title>concept_least_squares&#45;&gt;concept_polynomial_basics</title>
<path fill="none" stroke="#1f78b4" stroke-dasharray="5,2" d="M526.17,-235.14C526.17,-202.09 526.17,-136 526.17,-136 526.17,-136 735.92,-136 735.92,-136"/>
<polygon fill="#1f78b4" stroke="#1f78b4" points="735.92,-138.45 742.92,-136 735.92,-133.55 735.92,-138.45"/>
<text xml:space="preserve" text-anchor="middle" x="592.17" y="-191.9" font-family="Helvetica,sans-Serif" font-size="8.00" fill="#1f78b4">REQUIRES</text>
</g>
<!-- concept_minimax_approximation&#45;&gt;concept_least_squares -->
<g id="edge27" class="edge">
<title>concept_minimax_approximation&#45;&gt;concept_least_squares</title>
<path fill="none" stroke="#1f78b4" stroke-dasharray="5,2" d="M552.42,-352.85C552.42,-352.85 552.42,-280.28 552.42,-280.28"/>
<polygon fill="#1f78b4" stroke="#1f78b4" points="554.88,-280.28 552.43,-273.28 549.98,-280.28 554.88,-280.28"/>
<text xml:space="preserve" text-anchor="middle" x="555.17" y="-309.65" font-family="Helvetica,sans-Serif" font-size="8.00" fill="#1f78b4">REQUIRES</text>
</g>
<!-- concept_minimax_approximation&#45;&gt;concept_orthogonal_polynomials -->
<g id="edge28" class="edge">
<title>concept_minimax_approximation&#45;&gt;concept_orthogonal_polynomials</title>
<path fill="none" stroke="#1f78b4" stroke-dasharray="5,2" d="M642.92,-352.85C642.92,-352.85 642.92,-280.28 642.92,-280.28"/>
<polygon fill="#1f78b4" stroke="#1f78b4" points="645.38,-280.28 642.93,-273.28 640.48,-280.28 645.38,-280.28"/>
<text xml:space="preserve" text-anchor="middle" x="659.17" y="-309.65" font-family="Helvetica,sans-Serif" font-size="8.00" fill="#1f78b4">REQUIRES</text>
</g>
<!-- concept_newton_interpolation&#45;&gt;concept_divided_differences -->
<g id="edge21" class="edge">
<title>concept_newton_interpolation&#45;&gt;concept_divided_differences</title>
<path fill="none" stroke="#1f78b4" stroke-dasharray="5,2" d="M1228.41,-365C1250.79,-365 1271.33,-365 1271.33,-365 1271.33,-365 1271.33,-280.43 1271.33,-280.43"/>
<polygon fill="#1f78b4" stroke="#1f78b4" points="1273.78,-280.43 1271.33,-273.43 1268.88,-280.43 1273.78,-280.43"/>
<text xml:space="preserve" text-anchor="middle" x="1261.17" y="-309.65" font-family="Helvetica,sans-Serif" font-size="8.00" fill="#1f78b4">REQUIRES</text>
</g>
<!-- concept_newton_interpolation&#45;&gt;concept_polynomial_basics -->
<g id="edge18" class="edge">
<title>concept_newton_interpolation&#45;&gt;concept_polynomial_basics</title>
<path fill="none" stroke="#1f78b4" stroke-dasharray="5,2" d="M1153.83,-352.89C1153.83,-296.09 1153.83,-127 1153.83,-127 1153.83,-127 856.31,-127 856.31,-127"/>
<polygon fill="#1f78b4" stroke="#1f78b4" points="856.31,-124.55 849.31,-127 856.31,-129.45 856.31,-124.55"/>
<text xml:space="preserve" text-anchor="middle" x="1126.17" y="-250.78" font-family="Helvetica,sans-Serif" font-size="8.00" fill="#1f78b4">REQUIRES</text>
</g>
<!-- resource_newton_exercise -->
<g id="node22" class="node">
<title>resource_newton_exercise</title>
<path fill="#8ab17d" stroke="#6b9460" d="M1299.6,-36C1299.6,-36 1128.75,-36 1128.75,-36 1122.75,-36 1116.75,-30 1116.75,-24 1116.75,-24 1116.75,-12 1116.75,-12 1116.75,-6 1122.75,0 1128.75,0 1128.75,0 1299.6,0 1299.6,0 1305.6,0 1311.6,-6 1311.6,-12 1311.6,-12 1311.6,-24 1311.6,-24 1311.6,-30 1305.6,-36 1299.6,-36"/>
<text xml:space="preserve" text-anchor="middle" x="1214.17" y="-14.5" font-family="Helvetica,sans-Serif" font-size="10.00">Newton Interpolation Practice Problems</text>
</g>
<!-- concept_newton_interpolation&#45;&gt;resource_newton_exercise -->
<g id="edge31" class="edge">
<title>concept_newton_interpolation&#45;&gt;resource_newton_exercise</title>
<path fill="none" stroke="#008856" stroke-dasharray="1,5" d="M1190.9,-352.76C1190.9,-352.76 1190.9,-44.83 1190.9,-44.83"/>
<polygon fill="#008856" stroke="#008856" points="1193.35,-44.83 1190.9,-37.83 1188.45,-44.83 1193.35,-44.83"/>
<text xml:space="preserve" text-anchor="middle" x="1224.55" y="-191.9" font-family="Helvetica,sans-Serif" font-size="8.00" fill="#008856">REMEDIATES_TO</text>
</g>
<!-- concept_newton_optimization&#45;&gt;concept_gradient_descent -->
<g id="edge29" class="edge">
<title>concept_newton_optimization&#45;&gt;concept_gradient_descent</title>
<path fill="none" stroke="#1f78b4" stroke-dasharray="5,2" d="M298.18,-352.85C298.18,-352.85 298.18,-280.28 298.18,-280.28"/>
<polygon fill="#1f78b4" stroke="#1f78b4" points="300.63,-280.28 298.18,-273.28 295.73,-280.28 300.63,-280.28"/>
<text xml:space="preserve" text-anchor="middle" x="319.18" y="-309.65" font-family="Helvetica,sans-Serif" font-size="8.00" fill="#1f78b4">REQUIRES</text>
</g>
<!-- resource_newton_optim_exercise -->
<g id="node23" class="node">
<title>resource_newton_optim_exercise</title>
<path fill="#8ab17d" stroke="#6b9460" d="M196.35,-36C196.35,-36 12,-36 12,-36 6,-36 0,-30 0,-24 0,-24 0,-12 0,-12 0,-6 6,0 12,0 12,0 196.35,0 196.35,0 202.35,0 208.35,-6 208.35,-12 208.35,-12 208.35,-24 208.35,-24 208.35,-30 202.35,-36 196.35,-36"/>
<text xml:space="preserve" text-anchor="middle" x="104.18" y="-14.5" font-family="Helvetica,sans-Serif" font-size="10.00">Newton&#39;s Method (Optimization) Exercises</text>
</g>
<!-- concept_newton_optimization&#45;&gt;resource_newton_optim_exercise -->
<g id="edge37" class="edge">
<title>concept_newton_optimization&#45;&gt;resource_newton_optim_exercise</title>
<path fill="none" stroke="#008856" stroke-dasharray="1,5" d="M225.12,-352.76C225.12,-280.07 225.12,-18 225.12,-18 225.12,-18 217.33,-18 217.33,-18"/>
<polygon fill="#008856" stroke="#008856" points="217.33,-15.55 210.33,-18 217.33,-20.45 217.33,-15.55"/>
<text xml:space="preserve" text-anchor="middle" x="137.55" y="-191.9" font-family="Helvetica,sans-Serif" font-size="8.00" fill="#008856">REMEDIATES_TO</text>
</g>
<!-- concept_orthogonal_polynomials&#45;&gt;concept_polynomial_basics -->
<g id="edge16" class="edge">
<title>concept_orthogonal_polynomials&#45;&gt;concept_polynomial_basics</title>
<path fill="none" stroke="#1f78b4" stroke-dasharray="5,2" d="M748.16,-235.1C748.16,-235.1 748.16,-162.53 748.16,-162.53"/>
<polygon fill="#1f78b4" stroke="#1f78b4" points="750.61,-162.53 748.16,-155.53 745.71,-162.53 750.61,-162.53"/>
<text xml:space="preserve" text-anchor="middle" x="734.17" y="-191.9" font-family="Helvetica,sans-Serif" font-size="8.00" fill="#1f78b4">REQUIRES</text>
</g>
<!-- concept_orthogonal_polynomials&#45;&gt;concept_trapezoidal -->
<g id="edge24" class="edge">
<title>concept_orthogonal_polynomials&#45;&gt;concept_trapezoidal</title>
<path fill="none" stroke="#1f78b4" stroke-dasharray="5,2" d="M751.44,-235.31C751.44,-218.14 751.44,-195 751.44,-195 751.44,-195 1526.17,-195 1526.17,-195 1526.17,-195 1526.17,-162.69 1526.17,-162.69"/>
<polygon fill="#1f78b4" stroke="#1f78b4" points="1528.63,-162.69 1526.18,-155.69 1523.73,-162.69 1528.63,-162.69"/>
<text xml:space="preserve" text-anchor="middle" x="1478.17" y="-191.9" font-family="Helvetica,sans-Serif" font-size="8.00" fill="#1f78b4">REQUIRES</text>
</g>
<!-- concept_simpson&#45;&gt;concept_trapezoidal -->
<g id="edge25" class="edge">
<title>concept_simpson&#45;&gt;concept_trapezoidal</title>
<path fill="none" stroke="#1f78b4" stroke-dasharray="5,2" d="M1604.25,-235.14C1604.25,-202.09 1604.25,-136 1604.25,-136 1604.25,-136 1582.35,-136 1582.35,-136"/>
<polygon fill="#1f78b4" stroke="#1f78b4" points="1582.35,-133.55 1575.35,-136 1582.35,-138.45 1582.35,-133.55"/>
<text xml:space="preserve" text-anchor="middle" x="1596.17" y="-191.9" font-family="Helvetica,sans-Serif" font-size="8.00" fill="#1f78b4">REQUIRES</text>
</g>
<!-- resource_simpson_exercise -->
<g id="node24" class="node">
<title>resource_simpson_exercise</title>
<path fill="#8ab17d" stroke="#6b9460" d="M1859.72,-36C1859.72,-36 1746.62,-36 1746.62,-36 1740.62,-36 1734.62,-30 1734.62,-24 1734.62,-24 1734.62,-12 1734.62,-12 1734.62,-6 1740.62,0 1746.62,0 1746.62,0 1859.72,0 1859.72,0 1865.72,0 1871.72,-6 1871.72,-12 1871.72,-12 1871.72,-24 1871.72,-24 1871.72,-30 1865.72,-36 1859.72,-36"/>
<text xml:space="preserve" text-anchor="middle" x="1803.17" y="-14.5" font-family="Helvetica,sans-Serif" font-size="10.00">Simpson&#39;s Rule Exercises</text>
</g>
<!-- concept_simpson&#45;&gt;resource_simpson_exercise -->
<g id="edge34" class="edge">
<title>concept_simpson&#45;&gt;resource_simpson_exercise</title>
<path fill="none" stroke="#008856" stroke-dasharray="1,5" d="M1682.76,-248C1718.93,-248 1763.44,-248 1763.44,-248 1763.44,-248 1763.44,-44.95 1763.44,-44.95"/>
<polygon fill="#008856" stroke="#008856" points="1765.89,-44.95 1763.44,-37.95 1760.99,-44.95 1765.89,-44.95"/>
<text xml:space="preserve" text-anchor="middle" x="1670.55" y="-133.03" font-family="Helvetica,sans-Serif" font-size="8.00" fill="#008856">REMEDIATES_TO</text>
</g>
<!-- concept_spline_interpolation&#45;&gt;concept_lagrange -->
<g id="edge20" class="edge">
<title>concept_spline_interpolation&#45;&gt;concept_lagrange</title>
<path fill="none" stroke="#1f78b4" stroke-dasharray="5,2" d="M1001.7,-352.93C1001.7,-319.95 1001.7,-254 1001.7,-254 1001.7,-254 973.83,-254 973.83,-254"/>
<polygon fill="#1f78b4" stroke="#1f78b4" points="973.83,-251.55 966.83,-254 973.83,-256.45 973.83,-251.55"/>
<text xml:space="preserve" text-anchor="middle" x="976.17" y="-309.65" font-family="Helvetica,sans-Serif" font-size="8.00" fill="#1f78b4">REQUIRES</text>
</g>
<!-- resource_spline_tutorial -->
<g id="node25" class="node">
<title>resource_spline_tutorial</title>
<path fill="#8ab17d" stroke="#6b9460" d="M1075.85,-36C1075.85,-36 960.5,-36 960.5,-36 954.5,-36 948.5,-30 948.5,-24 948.5,-24 948.5,-12 948.5,-12 948.5,-6 954.5,0 960.5,0 960.5,0 1075.85,0 1075.85,0 1081.85,0 1087.85,-6 1087.85,-12 1087.85,-12 1087.85,-24 1087.85,-24 1087.85,-30 1081.85,-36 1075.85,-36"/>
<text xml:space="preserve" text-anchor="middle" x="1018.17" y="-14.5" font-family="Helvetica,sans-Serif" font-size="10.00">Spline Interpolation Tutorial</text>
</g>
<!-- concept_spline_interpolation&#45;&gt;resource_spline_tutorial -->
<g id="edge32" class="edge">
<title>concept_spline_interpolation&#45;&gt;resource_spline_tutorial</title>
<path fill="none" stroke="#008856" stroke-dasharray="1,5" d="M1036.65,-352.76C1036.65,-352.76 1036.65,-44.83 1036.65,-44.83"/>
<polygon fill="#008856" stroke="#008856" points="1039.1,-44.83 1036.65,-37.83 1034.2,-44.83 1039.1,-44.83"/>
<text xml:space="preserve" text-anchor="middle" x="1051.55" y="-191.9" font-family="Helvetica,sans-Serif" font-size="8.00" fill="#008856">REMEDIATES_TO</text>
</g>
<!-- concept_trapezoidal&#45;&gt;concept_definite_integrals -->
<g id="edge23" class="edge">
<title>concept_trapezoidal&#45;&gt;concept_definite_integrals</title>
<path fill="none" stroke="#1f78b4" stroke-dasharray="5,2" d="M1478.27,-145C1444.4,-145 1404.97,-145 1404.97,-145 1404.97,-145 1404.97,-44.98 1404.97,-44.98"/>
<polygon fill="#1f78b4" stroke="#1f78b4" points="1407.43,-44.98 1404.98,-37.98 1402.53,-44.98 1407.43,-44.98"/>
<text xml:space="preserve" text-anchor="middle" x="1471.17" y="-74.15" font-family="Helvetica,sans-Serif" font-size="8.00" fill="#1f78b4">REQUIRES</text>
</g>
<!-- concept_trapezoidal&#45;&gt;concept_riemann_sums -->
<g id="edge22" class="edge">
<title>concept_trapezoidal&#45;&gt;concept_riemann_sums</title>
<path fill="none" stroke="#1f78b4" stroke-dasharray="5,2" d="M1573.87,-127C1608.59,-127 1649.55,-127 1649.55,-127 1649.55,-127 1649.55,-45 1649.55,-45"/>
<polygon fill="#1f78b4" stroke="#1f78b4" points="1652,-45 1649.55,-38 1647.1,-45 1652,-45"/>
<text xml:space="preserve" text-anchor="middle" x="1665.17" y="-74.15" font-family="Helvetica,sans-Serif" font-size="8.00" fill="#1f78b4">REQUIRES</text>
</g>
<!-- resource_trapezoidal_video -->
<g id="node26" class="node">
<title>resource_trapezoidal_video</title>
<path fill="#8ab17d" stroke="#6b9460" d="M1575.6,-36C1575.6,-36 1476.75,-36 1476.75,-36 1470.75,-36 1464.75,-30 1464.75,-24 1464.75,-24 1464.75,-12 1464.75,-12 1464.75,-6 1470.75,0 1476.75,0 1476.75,0 1575.6,0 1575.6,0 1581.6,0 1587.6,-6 1587.6,-12 1587.6,-12 1587.6,-24 1587.6,-24 1587.6,-30 1581.6,-36 1575.6,-36"/>
<text xml:space="preserve" text-anchor="middle" x="1526.17" y="-14.5" font-family="Helvetica,sans-Serif" font-size="10.00">Trapezoidal Rule Video</text>
</g>
<!-- concept_trapezoidal&#45;&gt;resource_trapezoidal_video -->
<g id="edge33" class="edge">
<title>concept_trapezoidal&#45;&gt;resource_trapezoidal_video</title>
<path fill="none" stroke="#008856" stroke-dasharray="1,5" d="M1526.17,-117.35C1526.17,-117.35 1526.17,-44.78 1526.17,-44.78"/>
<polygon fill="#008856" stroke="#008856" points="1528.63,-44.78 1526.18,-37.78 1523.73,-44.78 1528.63,-44.78"/>
<text xml:space="preserve" text-anchor="middle" x="1559.55" y="-74.15" font-family="Helvetica,sans-Serif" font-size="8.00" fill="#008856">REMEDIATES_TO</text>
</g>
</g>
</svg>
